G04 #@! TF.GenerationSoftware,KiCad,Pcbnew,(5.1.10-1-10_14)*
G04 #@! TF.CreationDate,2021-12-01T23:12:48+09:00*
G04 #@! TF.ProjectId,DBG-ESP32,4442472d-4553-4503-9332-2e6b69636164,V1.0*
G04 #@! TF.SameCoordinates,Original*
G04 #@! TF.FileFunction,Legend,Top*
G04 #@! TF.FilePolarity,Positive*
%FSLAX46Y46*%
G04 Gerber Fmt 4.6, Leading zero omitted, Abs format (unit mm)*
G04 Created by KiCad (PCBNEW (5.1.10-1-10_14)) date 2021-12-01 23:12:48*
%MOMM*%
%LPD*%
G01*
G04 APERTURE LIST*
%ADD10C,0.150000*%
%ADD11C,0.200000*%
%ADD12C,0.120000*%
G04 APERTURE END LIST*
D10*
X-4261904Y12747619D02*
X-4261904Y13747619D01*
X-4023809Y13747619D01*
X-3880952Y13700000D01*
X-3785714Y13604761D01*
X-3738095Y13509523D01*
X-3690476Y13319047D01*
X-3690476Y13176190D01*
X-3738095Y12985714D01*
X-3785714Y12890476D01*
X-3880952Y12795238D01*
X-4023809Y12747619D01*
X-4261904Y12747619D01*
X-2928571Y13271428D02*
X-2785714Y13223809D01*
X-2738095Y13176190D01*
X-2690476Y13080952D01*
X-2690476Y12938095D01*
X-2738095Y12842857D01*
X-2785714Y12795238D01*
X-2880952Y12747619D01*
X-3261904Y12747619D01*
X-3261904Y13747619D01*
X-2928571Y13747619D01*
X-2833333Y13700000D01*
X-2785714Y13652380D01*
X-2738095Y13557142D01*
X-2738095Y13461904D01*
X-2785714Y13366666D01*
X-2833333Y13319047D01*
X-2928571Y13271428D01*
X-3261904Y13271428D01*
X-1738095Y13700000D02*
X-1833333Y13747619D01*
X-1976190Y13747619D01*
X-2119047Y13700000D01*
X-2214285Y13604761D01*
X-2261904Y13509523D01*
X-2309523Y13319047D01*
X-2309523Y13176190D01*
X-2261904Y12985714D01*
X-2214285Y12890476D01*
X-2119047Y12795238D01*
X-1976190Y12747619D01*
X-1880952Y12747619D01*
X-1738095Y12795238D01*
X-1690476Y12842857D01*
X-1690476Y13176190D01*
X-1880952Y13176190D01*
X-1261904Y13128571D02*
X-500000Y13128571D01*
X-23809Y13271428D02*
X309523Y13271428D01*
X452380Y12747619D02*
X-23809Y12747619D01*
X-23809Y13747619D01*
X452380Y13747619D01*
X833333Y12795238D02*
X976190Y12747619D01*
X1214285Y12747619D01*
X1309523Y12795238D01*
X1357142Y12842857D01*
X1404761Y12938095D01*
X1404761Y13033333D01*
X1357142Y13128571D01*
X1309523Y13176190D01*
X1214285Y13223809D01*
X1023809Y13271428D01*
X928571Y13319047D01*
X880952Y13366666D01*
X833333Y13461904D01*
X833333Y13557142D01*
X880952Y13652380D01*
X928571Y13700000D01*
X1023809Y13747619D01*
X1261904Y13747619D01*
X1404761Y13700000D01*
X1833333Y12747619D02*
X1833333Y13747619D01*
X2214285Y13747619D01*
X2309523Y13700000D01*
X2357142Y13652380D01*
X2404761Y13557142D01*
X2404761Y13414285D01*
X2357142Y13319047D01*
X2309523Y13271428D01*
X2214285Y13223809D01*
X1833333Y13223809D01*
X2738095Y13747619D02*
X3357142Y13747619D01*
X3023809Y13366666D01*
X3166666Y13366666D01*
X3261904Y13319047D01*
X3309523Y13271428D01*
X3357142Y13176190D01*
X3357142Y12938095D01*
X3309523Y12842857D01*
X3261904Y12795238D01*
X3166666Y12747619D01*
X2880952Y12747619D01*
X2785714Y12795238D01*
X2738095Y12842857D01*
X3738095Y13652380D02*
X3785714Y13700000D01*
X3880952Y13747619D01*
X4119047Y13747619D01*
X4214285Y13700000D01*
X4261904Y13652380D01*
X4309523Y13557142D01*
X4309523Y13461904D01*
X4261904Y13319047D01*
X3690476Y12747619D01*
X4309523Y12747619D01*
X5357142Y13747619D02*
X5690476Y12747619D01*
X6023809Y13747619D01*
X6880952Y12747619D02*
X6309523Y12747619D01*
X6595238Y12747619D02*
X6595238Y13747619D01*
X6499999Y13604761D01*
X6404761Y13509523D01*
X6309523Y13461904D01*
X7309523Y12842857D02*
X7357142Y12795238D01*
X7309523Y12747619D01*
X7261904Y12795238D01*
X7309523Y12842857D01*
X7309523Y12747619D01*
X7976190Y13747619D02*
X8071428Y13747619D01*
X8166666Y13700000D01*
X8214285Y13652380D01*
X8261904Y13557142D01*
X8309523Y13366666D01*
X8309523Y13128571D01*
X8261904Y12938095D01*
X8214285Y12842857D01*
X8166666Y12795238D01*
X8071428Y12747619D01*
X7976190Y12747619D01*
X7880952Y12795238D01*
X7833333Y12842857D01*
X7785714Y12938095D01*
X7738095Y13128571D01*
X7738095Y13366666D01*
X7785714Y13557142D01*
X7833333Y13652380D01*
X7880952Y13700000D01*
X7976190Y13747619D01*
X9198095Y9081619D02*
X9769523Y9081619D01*
X9483809Y8081619D02*
X9483809Y9081619D01*
X10007619Y9081619D02*
X10674285Y8081619D01*
X10674285Y9081619D02*
X10007619Y8081619D01*
X9793333Y4091619D02*
X9460000Y4567809D01*
X9221904Y4091619D02*
X9221904Y5091619D01*
X9602857Y5091619D01*
X9698095Y5044000D01*
X9745714Y4996380D01*
X9793333Y4901142D01*
X9793333Y4758285D01*
X9745714Y4663047D01*
X9698095Y4615428D01*
X9602857Y4567809D01*
X9221904Y4567809D01*
X10126666Y5091619D02*
X10793333Y4091619D01*
X10793333Y5091619D02*
X10126666Y4091619D01*
X-2666666Y-2468571D02*
X-3000000Y-2468571D01*
X-3000000Y-2992380D02*
X-3000000Y-1992380D01*
X-2523809Y-1992380D01*
X-2285714Y-1992380D02*
X-1714285Y-1992380D01*
X-2000000Y-2992380D02*
X-2000000Y-1992380D01*
X-1428571Y-2087619D02*
X-1380952Y-2040000D01*
X-1285714Y-1992380D01*
X-1047619Y-1992380D01*
X-952380Y-2040000D01*
X-904761Y-2087619D01*
X-857142Y-2182857D01*
X-857142Y-2278095D01*
X-904761Y-2420952D01*
X-1476190Y-2992380D01*
X-857142Y-2992380D01*
X-476190Y-2087619D02*
X-428571Y-2040000D01*
X-333333Y-1992380D01*
X-95238Y-1992380D01*
X0Y-2040000D01*
X47619Y-2087619D01*
X95238Y-2182857D01*
X95238Y-2278095D01*
X47619Y-2420952D01*
X-523809Y-2992380D01*
X95238Y-2992380D01*
X428571Y-1992380D02*
X1047619Y-1992380D01*
X714285Y-2373333D01*
X857142Y-2373333D01*
X952380Y-2420952D01*
X999999Y-2468571D01*
X1047619Y-2563809D01*
X1047619Y-2801904D01*
X999999Y-2897142D01*
X952380Y-2944761D01*
X857142Y-2992380D01*
X571428Y-2992380D01*
X476190Y-2944761D01*
X428571Y-2897142D01*
X1428571Y-2087619D02*
X1476190Y-2040000D01*
X1571428Y-1992380D01*
X1809523Y-1992380D01*
X1904761Y-2040000D01*
X1952380Y-2087619D01*
X1999999Y-2182857D01*
X1999999Y-2278095D01*
X1952380Y-2420952D01*
X1380952Y-2992380D01*
X1999999Y-2992380D01*
X2428571Y-2992380D02*
X2428571Y-1992380D01*
X2428571Y-2468571D02*
X2999999Y-2468571D01*
X2999999Y-2992380D02*
X2999999Y-1992380D01*
X5617785Y-770000D02*
X5522547Y-722380D01*
X5379690Y-722380D01*
X5236833Y-770000D01*
X5141595Y-865238D01*
X5093976Y-960476D01*
X5046357Y-1150952D01*
X5046357Y-1293809D01*
X5093976Y-1484285D01*
X5141595Y-1579523D01*
X5236833Y-1674761D01*
X5379690Y-1722380D01*
X5474928Y-1722380D01*
X5617785Y-1674761D01*
X5665404Y-1627142D01*
X5665404Y-1293809D01*
X5474928Y-1293809D01*
X6093976Y-1722380D02*
X6093976Y-722380D01*
X6665404Y-1722380D01*
X6665404Y-722380D01*
X7141595Y-1722380D02*
X7141595Y-722380D01*
X7379690Y-722380D01*
X7522547Y-770000D01*
X7617785Y-865238D01*
X7665404Y-960476D01*
X7713023Y-1150952D01*
X7713023Y-1293809D01*
X7665404Y-1484285D01*
X7617785Y-1579523D01*
X7522547Y-1674761D01*
X7379690Y-1722380D01*
X7141595Y-1722380D01*
X4808261Y-3262380D02*
X5427309Y-3262380D01*
X5093976Y-3643333D01*
X5236833Y-3643333D01*
X5332071Y-3690952D01*
X5379690Y-3738571D01*
X5427309Y-3833809D01*
X5427309Y-4071904D01*
X5379690Y-4167142D01*
X5332071Y-4214761D01*
X5236833Y-4262380D01*
X4951119Y-4262380D01*
X4855880Y-4214761D01*
X4808261Y-4167142D01*
X5855880Y-4167142D02*
X5903500Y-4214761D01*
X5855880Y-4262380D01*
X5808261Y-4214761D01*
X5855880Y-4167142D01*
X5855880Y-4262380D01*
X6236833Y-3262380D02*
X6855880Y-3262380D01*
X6522547Y-3643333D01*
X6665404Y-3643333D01*
X6760642Y-3690952D01*
X6808261Y-3738571D01*
X6855880Y-3833809D01*
X6855880Y-4071904D01*
X6808261Y-4167142D01*
X6760642Y-4214761D01*
X6665404Y-4262380D01*
X6379690Y-4262380D01*
X6284452Y-4214761D01*
X6236833Y-4167142D01*
X7141595Y-3262380D02*
X7474928Y-4262380D01*
X7808261Y-3262380D01*
X6189214Y-6278571D02*
X6522547Y-6278571D01*
X6665404Y-6802380D02*
X6189214Y-6802380D01*
X6189214Y-5802380D01*
X6665404Y-5802380D01*
X7093976Y-6802380D02*
X7093976Y-5802380D01*
X7665404Y-6802380D01*
X7665404Y-5802380D01*
X4617785Y-8818571D02*
X4760642Y-8866190D01*
X4808261Y-8913809D01*
X4855880Y-9009047D01*
X4855880Y-9151904D01*
X4808261Y-9247142D01*
X4760642Y-9294761D01*
X4665404Y-9342380D01*
X4284452Y-9342380D01*
X4284452Y-8342380D01*
X4617785Y-8342380D01*
X4713023Y-8390000D01*
X4760642Y-8437619D01*
X4808261Y-8532857D01*
X4808261Y-8628095D01*
X4760642Y-8723333D01*
X4713023Y-8770952D01*
X4617785Y-8818571D01*
X4284452Y-8818571D01*
X5474928Y-8342380D02*
X5665404Y-8342380D01*
X5760642Y-8390000D01*
X5855880Y-8485238D01*
X5903500Y-8675714D01*
X5903500Y-9009047D01*
X5855880Y-9199523D01*
X5760642Y-9294761D01*
X5665404Y-9342380D01*
X5474928Y-9342380D01*
X5379690Y-9294761D01*
X5284452Y-9199523D01*
X5236833Y-9009047D01*
X5236833Y-8675714D01*
X5284452Y-8485238D01*
X5379690Y-8390000D01*
X5474928Y-8342380D01*
X6522547Y-8342380D02*
X6713023Y-8342380D01*
X6808261Y-8390000D01*
X6903500Y-8485238D01*
X6951119Y-8675714D01*
X6951119Y-9009047D01*
X6903500Y-9199523D01*
X6808261Y-9294761D01*
X6713023Y-9342380D01*
X6522547Y-9342380D01*
X6427309Y-9294761D01*
X6332071Y-9199523D01*
X6284452Y-9009047D01*
X6284452Y-8675714D01*
X6332071Y-8485238D01*
X6427309Y-8390000D01*
X6522547Y-8342380D01*
X7236833Y-8342380D02*
X7808261Y-8342380D01*
X7522547Y-9342380D02*
X7522547Y-8342380D01*
X5284452Y-10882380D02*
X5855880Y-10882380D01*
X5570166Y-11882380D02*
X5570166Y-10882380D01*
X6093976Y-10882380D02*
X6760642Y-11882380D01*
X6760642Y-10882380D02*
X6093976Y-11882380D01*
X7141595Y-11882380D02*
X7141595Y-10882380D01*
X7379690Y-10882380D01*
X7522547Y-10930000D01*
X7617785Y-11025238D01*
X7665404Y-11120476D01*
X7713023Y-11310952D01*
X7713023Y-11453809D01*
X7665404Y-11644285D01*
X7617785Y-11739523D01*
X7522547Y-11834761D01*
X7379690Y-11882380D01*
X7141595Y-11882380D01*
X5760642Y-14422380D02*
X5427309Y-13946190D01*
X5189214Y-14422380D02*
X5189214Y-13422380D01*
X5570166Y-13422380D01*
X5665404Y-13470000D01*
X5713023Y-13517619D01*
X5760642Y-13612857D01*
X5760642Y-13755714D01*
X5713023Y-13850952D01*
X5665404Y-13898571D01*
X5570166Y-13946190D01*
X5189214Y-13946190D01*
X6093976Y-13422380D02*
X6760642Y-14422380D01*
X6760642Y-13422380D02*
X6093976Y-14422380D01*
X7141595Y-14422380D02*
X7141595Y-13422380D01*
X7379690Y-13422380D01*
X7522547Y-13470000D01*
X7617785Y-13565238D01*
X7665404Y-13660476D01*
X7713023Y-13850952D01*
X7713023Y-13993809D01*
X7665404Y-14184285D01*
X7617785Y-14279523D01*
X7522547Y-14374761D01*
X7379690Y-14422380D01*
X7141595Y-14422380D01*
X-7808261Y-13422380D02*
X-7236833Y-13422380D01*
X-7522547Y-14422380D02*
X-7522547Y-13422380D01*
X-6903500Y-14422380D02*
X-6903500Y-13422380D01*
X-6665404Y-13422380D01*
X-6522547Y-13470000D01*
X-6427309Y-13565238D01*
X-6379690Y-13660476D01*
X-6332071Y-13850952D01*
X-6332071Y-13993809D01*
X-6379690Y-14184285D01*
X-6427309Y-14279523D01*
X-6522547Y-14374761D01*
X-6665404Y-14422380D01*
X-6903500Y-14422380D01*
X-5713023Y-13422380D02*
X-5522547Y-13422380D01*
X-5427309Y-13470000D01*
X-5332071Y-13565238D01*
X-5284452Y-13755714D01*
X-5284452Y-14089047D01*
X-5332071Y-14279523D01*
X-5427309Y-14374761D01*
X-5522547Y-14422380D01*
X-5713023Y-14422380D01*
X-5808261Y-14374761D01*
X-5903500Y-14279523D01*
X-5951119Y-14089047D01*
X-5951119Y-13755714D01*
X-5903500Y-13565238D01*
X-5808261Y-13470000D01*
X-5713023Y-13422380D01*
X-7808261Y-10882380D02*
X-7236833Y-10882380D01*
X-7522547Y-11882380D02*
X-7522547Y-10882380D01*
X-6332071Y-11787142D02*
X-6379690Y-11834761D01*
X-6522547Y-11882380D01*
X-6617785Y-11882380D01*
X-6760642Y-11834761D01*
X-6855880Y-11739523D01*
X-6903500Y-11644285D01*
X-6951119Y-11453809D01*
X-6951119Y-11310952D01*
X-6903500Y-11120476D01*
X-6855880Y-11025238D01*
X-6760642Y-10930000D01*
X-6617785Y-10882380D01*
X-6522547Y-10882380D01*
X-6379690Y-10930000D01*
X-6332071Y-10977619D01*
X-5903500Y-11882380D02*
X-5903500Y-10882380D01*
X-5332071Y-11882380D02*
X-5760642Y-11310952D01*
X-5332071Y-10882380D02*
X-5903500Y-11453809D01*
X-7808261Y-8342380D02*
X-7236833Y-8342380D01*
X-7522547Y-9342380D02*
X-7522547Y-8342380D01*
X-6903500Y-9342380D02*
X-6903500Y-8342380D01*
X-6665404Y-8342380D01*
X-6522547Y-8390000D01*
X-6427309Y-8485238D01*
X-6379690Y-8580476D01*
X-6332071Y-8770952D01*
X-6332071Y-8913809D01*
X-6379690Y-9104285D01*
X-6427309Y-9199523D01*
X-6522547Y-9294761D01*
X-6665404Y-9342380D01*
X-6903500Y-9342380D01*
X-5903500Y-9342380D02*
X-5903500Y-8342380D01*
X-7808261Y-5802380D02*
X-7236833Y-5802380D01*
X-7522547Y-6802380D02*
X-7522547Y-5802380D01*
X-6903500Y-6802380D02*
X-6903500Y-5802380D01*
X-6570166Y-6516666D01*
X-6236833Y-5802380D01*
X-6236833Y-6802380D01*
X-5808261Y-6754761D02*
X-5665404Y-6802380D01*
X-5427309Y-6802380D01*
X-5332071Y-6754761D01*
X-5284452Y-6707142D01*
X-5236833Y-6611904D01*
X-5236833Y-6516666D01*
X-5284452Y-6421428D01*
X-5332071Y-6373809D01*
X-5427309Y-6326190D01*
X-5617785Y-6278571D01*
X-5713023Y-6230952D01*
X-5760642Y-6183333D01*
X-5808261Y-6088095D01*
X-5808261Y-5992857D01*
X-5760642Y-5897619D01*
X-5713023Y-5850000D01*
X-5617785Y-5802380D01*
X-5379690Y-5802380D01*
X-5236833Y-5850000D01*
X-7189214Y-3262380D02*
X-7665404Y-3262380D01*
X-7713023Y-3738571D01*
X-7665404Y-3690952D01*
X-7570166Y-3643333D01*
X-7332071Y-3643333D01*
X-7236833Y-3690952D01*
X-7189214Y-3738571D01*
X-7141595Y-3833809D01*
X-7141595Y-4071904D01*
X-7189214Y-4167142D01*
X-7236833Y-4214761D01*
X-7332071Y-4262380D01*
X-7570166Y-4262380D01*
X-7665404Y-4214761D01*
X-7713023Y-4167142D01*
X-6855880Y-3262380D02*
X-6522547Y-4262380D01*
X-6189214Y-3262380D01*
X-7141595Y-770000D02*
X-7236833Y-722380D01*
X-7379690Y-722380D01*
X-7522547Y-770000D01*
X-7617785Y-865238D01*
X-7665404Y-960476D01*
X-7713023Y-1150952D01*
X-7713023Y-1293809D01*
X-7665404Y-1484285D01*
X-7617785Y-1579523D01*
X-7522547Y-1674761D01*
X-7379690Y-1722380D01*
X-7284452Y-1722380D01*
X-7141595Y-1674761D01*
X-7093976Y-1627142D01*
X-7093976Y-1293809D01*
X-7284452Y-1293809D01*
X-6665404Y-1722380D02*
X-6665404Y-722380D01*
X-6093976Y-1722380D01*
X-6093976Y-722380D01*
X-5617785Y-1722380D02*
X-5617785Y-722380D01*
X-5379690Y-722380D01*
X-5236833Y-770000D01*
X-5141595Y-865238D01*
X-5093976Y-960476D01*
X-5046357Y-1150952D01*
X-5046357Y-1293809D01*
X-5093976Y-1484285D01*
X-5141595Y-1579523D01*
X-5236833Y-1674761D01*
X-5379690Y-1722380D01*
X-5617785Y-1722380D01*
X-2166666Y-8428571D02*
X-1833333Y-8428571D01*
X-1690476Y-8952380D02*
X-2166666Y-8952380D01*
X-2166666Y-7952380D01*
X-1690476Y-7952380D01*
X-1261904Y-8952380D02*
X-1261904Y-7952380D01*
X-690476Y-8952380D01*
X-690476Y-7952380D01*
X499999Y-8904761D02*
X642857Y-8952380D01*
X880952Y-8952380D01*
X976190Y-8904761D01*
X1023809Y-8857142D01*
X1071428Y-8761904D01*
X1071428Y-8666666D01*
X1023809Y-8571428D01*
X976190Y-8523809D01*
X880952Y-8476190D01*
X690476Y-8428571D01*
X595238Y-8380952D01*
X547619Y-8333333D01*
X499999Y-8238095D01*
X499999Y-8142857D01*
X547619Y-8047619D01*
X595238Y-8000000D01*
X690476Y-7952380D01*
X928571Y-7952380D01*
X1071428Y-8000000D01*
X1404761Y-7952380D02*
X1642857Y-8952380D01*
X1833333Y-8238095D01*
X2023809Y-8952380D01*
X2261904Y-7952380D01*
X-2785714Y-13428571D02*
X-2642857Y-13476190D01*
X-2595238Y-13523809D01*
X-2547619Y-13619047D01*
X-2547619Y-13761904D01*
X-2595238Y-13857142D01*
X-2642857Y-13904761D01*
X-2738095Y-13952380D01*
X-3119047Y-13952380D01*
X-3119047Y-12952380D01*
X-2785714Y-12952380D01*
X-2690476Y-13000000D01*
X-2642857Y-13047619D01*
X-2595238Y-13142857D01*
X-2595238Y-13238095D01*
X-2642857Y-13333333D01*
X-2690476Y-13380952D01*
X-2785714Y-13428571D01*
X-3119047Y-13428571D01*
X-1928571Y-12952380D02*
X-1738095Y-12952380D01*
X-1642857Y-13000000D01*
X-1547619Y-13095238D01*
X-1500000Y-13285714D01*
X-1500000Y-13619047D01*
X-1547619Y-13809523D01*
X-1642857Y-13904761D01*
X-1738095Y-13952380D01*
X-1928571Y-13952380D01*
X-2023809Y-13904761D01*
X-2119047Y-13809523D01*
X-2166666Y-13619047D01*
X-2166666Y-13285714D01*
X-2119047Y-13095238D01*
X-2023809Y-13000000D01*
X-1928571Y-12952380D01*
X-880952Y-12952380D02*
X-690476Y-12952380D01*
X-595238Y-13000000D01*
X-500000Y-13095238D01*
X-452380Y-13285714D01*
X-452380Y-13619047D01*
X-500000Y-13809523D01*
X-595238Y-13904761D01*
X-690476Y-13952380D01*
X-880952Y-13952380D01*
X-976190Y-13904761D01*
X-1071428Y-13809523D01*
X-1119047Y-13619047D01*
X-1119047Y-13285714D01*
X-1071428Y-13095238D01*
X-976190Y-13000000D01*
X-880952Y-12952380D01*
X-166666Y-12952380D02*
X404761Y-12952380D01*
X119047Y-13952380D02*
X119047Y-12952380D01*
X1452380Y-13904761D02*
X1595238Y-13952380D01*
X1833333Y-13952380D01*
X1928571Y-13904761D01*
X1976190Y-13857142D01*
X2023809Y-13761904D01*
X2023809Y-13666666D01*
X1976190Y-13571428D01*
X1928571Y-13523809D01*
X1833333Y-13476190D01*
X1642857Y-13428571D01*
X1547619Y-13380952D01*
X1499999Y-13333333D01*
X1452380Y-13238095D01*
X1452380Y-13142857D01*
X1499999Y-13047619D01*
X1547619Y-13000000D01*
X1642857Y-12952380D01*
X1880952Y-12952380D01*
X2023809Y-13000000D01*
X2357142Y-12952380D02*
X2595238Y-13952380D01*
X2785714Y-13238095D01*
X2976190Y-13952380D01*
X3214285Y-12952380D01*
X6523809Y17547619D02*
X6523809Y18547619D01*
X6904761Y18547619D01*
X7000000Y18500000D01*
X7047619Y18452380D01*
X7095238Y18357142D01*
X7095238Y18214285D01*
X7047619Y18119047D01*
X7000000Y18071428D01*
X6904761Y18023809D01*
X6523809Y18023809D01*
X7666666Y17547619D02*
X7571428Y17595238D01*
X7523809Y17642857D01*
X7476190Y17738095D01*
X7476190Y18023809D01*
X7523809Y18119047D01*
X7571428Y18166666D01*
X7666666Y18214285D01*
X7809523Y18214285D01*
X7904761Y18166666D01*
X7952380Y18119047D01*
X8000000Y18023809D01*
X8000000Y17738095D01*
X7952380Y17642857D01*
X7904761Y17595238D01*
X7809523Y17547619D01*
X7666666Y17547619D01*
X8333333Y18214285D02*
X8523809Y17547619D01*
X8714285Y18023809D01*
X8904761Y17547619D01*
X9095238Y18214285D01*
X9857142Y17595238D02*
X9761904Y17547619D01*
X9571428Y17547619D01*
X9476190Y17595238D01*
X9428571Y17690476D01*
X9428571Y18071428D01*
X9476190Y18166666D01*
X9571428Y18214285D01*
X9761904Y18214285D01*
X9857142Y18166666D01*
X9904761Y18071428D01*
X9904761Y17976190D01*
X9428571Y17880952D01*
X10333333Y17547619D02*
X10333333Y18214285D01*
X10333333Y18023809D02*
X10380952Y18119047D01*
X10428571Y18166666D01*
X10523809Y18214285D01*
X10619047Y18214285D01*
D11*
X3850000Y12100000D02*
G75*
G03*
X3850000Y12100000I-100000J0D01*
G01*
D12*
X5100000Y-100000D02*
X5100000Y700000D01*
X4300000Y-100000D02*
X5100000Y-100000D01*
X-5100000Y-100000D02*
X-4300000Y-100000D01*
X-5100000Y700000D02*
X-5100000Y-100000D01*
X-5100000Y10100000D02*
X-5100000Y9300000D01*
X-4300000Y10100000D02*
X-5100000Y10100000D01*
X5100000Y10100000D02*
X4300000Y10100000D01*
X5100000Y9300000D02*
X5100000Y10100000D01*
X2200000Y-12000000D02*
X2200000Y-12700000D01*
X2200000Y-12700000D02*
X-2200000Y-12700000D01*
X-2200000Y-12700000D02*
X-2200000Y-12000000D01*
X-2200000Y-10000000D02*
X-2200000Y-9300000D01*
X-2200000Y-9300000D02*
X2200000Y-9300000D01*
X2200000Y-9300000D02*
X2200000Y-10000000D01*
X2200000Y-7000000D02*
X2200000Y-7700000D01*
X2200000Y-7700000D02*
X-2200000Y-7700000D01*
X-2200000Y-7700000D02*
X-2200000Y-7000000D01*
X-2200000Y-5000000D02*
X-2200000Y-4300000D01*
X-2200000Y-4300000D02*
X2200000Y-4300000D01*
X2200000Y-4300000D02*
X2200000Y-5000000D01*
X8310000Y7760000D02*
X8310000Y6260000D01*
X11610000Y7760000D02*
X11610000Y6260000D01*
X8310000Y7760000D02*
X11610000Y7760000D01*
X8310000Y6260000D02*
X11610000Y6260000D01*
X10060000Y7210000D02*
X10060000Y6810000D01*
X10060000Y6810000D02*
X9860000Y7010000D01*
X9860000Y7010000D02*
X10060000Y7210000D01*
X8310000Y3770000D02*
X8310000Y2270000D01*
X11610000Y3770000D02*
X11610000Y2270000D01*
X8310000Y3770000D02*
X11610000Y3770000D01*
X8310000Y2270000D02*
X11610000Y2270000D01*
X10060000Y3220000D02*
X10060000Y2820000D01*
X10060000Y2820000D02*
X9860000Y3020000D01*
X9860000Y3020000D02*
X10060000Y3220000D01*
X6850000Y17250000D02*
X6850000Y15750000D01*
X10150000Y17250000D02*
X10150000Y15750000D01*
X6850000Y17250000D02*
X10150000Y17250000D01*
X6850000Y15750000D02*
X10150000Y15750000D01*
X8600000Y16700000D02*
X8600000Y16300000D01*
X8600000Y16300000D02*
X8400000Y16500000D01*
X8400000Y16500000D02*
X8600000Y16700000D01*
X-5090000Y18410000D02*
X-7440000Y18410000D01*
X-11910000Y18410000D02*
X-9560000Y18410000D01*
X-11910000Y12654437D02*
X-11910000Y18410000D01*
X-5090000Y12654437D02*
X-5090000Y18410000D01*
X-6154437Y11590000D02*
X-7440000Y11590000D01*
X-10845563Y11590000D02*
X-9560000Y11590000D01*
X-10845563Y11590000D02*
X-11910000Y12654437D01*
X-6154437Y11590000D02*
X-5090000Y12654437D01*
X-10347500Y10562500D02*
X-10347500Y11350000D01*
X-10741250Y10956250D02*
X-9953750Y10956250D01*
M02*
