G04 #@! TF.GenerationSoftware,KiCad,Pcbnew,(5.1.10-1-10_14)*
G04 #@! TF.CreationDate,2021-12-01T23:12:48+09:00*
G04 #@! TF.ProjectId,DBG-ESP32,4442472d-4553-4503-9332-2e6b69636164,V1.0*
G04 #@! TF.SameCoordinates,Original*
G04 #@! TF.FileFunction,Legend,Bot*
G04 #@! TF.FilePolarity,Positive*
%FSLAX46Y46*%
G04 Gerber Fmt 4.6, Leading zero omitted, Abs format (unit mm)*
G04 Created by KiCad (PCBNEW (5.1.10-1-10_14)) date 2021-12-01 23:12:48*
%MOMM*%
%LPD*%
G01*
G04 APERTURE LIST*
%ADD10C,0.120000*%
%ADD11C,0.200000*%
G04 APERTURE END LIST*
D10*
X-3850000Y7950000D02*
X-3850000Y6450000D01*
X-7150000Y7950000D02*
X-7150000Y6450000D01*
X-3850000Y7950000D02*
X-7150000Y7950000D01*
X-3850000Y6450000D02*
X-7150000Y6450000D01*
X-5600000Y7400000D02*
X-5600000Y7000000D01*
X-5600000Y7000000D02*
X-5400000Y7200000D01*
X-5400000Y7200000D02*
X-5600000Y7400000D01*
X500000Y4750000D02*
X-500000Y4750000D01*
X-1650000Y5750000D02*
X-1650000Y6350000D01*
X-500000Y7350000D02*
X500000Y7350000D01*
X1650000Y6350000D02*
X1650000Y5750000D01*
X-12110000Y17310000D02*
X-10850000Y17310000D01*
X-5290000Y17310000D02*
X-6550000Y17310000D01*
X-12110000Y13550000D02*
X-12110000Y17310000D01*
X-5290000Y11300000D02*
X-5290000Y17310000D01*
D11*
X7600000Y5550000D02*
G75*
G03*
X7600000Y5550000I-100000J0D01*
G01*
D10*
X10450000Y5100000D02*
X10450000Y5000000D01*
X10450000Y5000000D02*
X8550000Y5000000D01*
X8550000Y5000000D02*
X8550000Y5100000D01*
X8550000Y7900000D02*
X8550000Y8000000D01*
X8550000Y8000000D02*
X10450000Y8000000D01*
X10450000Y8000000D02*
X10450000Y7900000D01*
X3750000Y-3350000D02*
X5250000Y-3350000D01*
X3750000Y-6650000D02*
X5250000Y-6650000D01*
X3750000Y-3350000D02*
X3750000Y-6650000D01*
X5250000Y-3350000D02*
X5250000Y-6650000D01*
X4300000Y-5100000D02*
X4700000Y-5100000D01*
X4700000Y-5100000D02*
X4500000Y-4900000D01*
X4500000Y-4900000D02*
X4300000Y-5100000D01*
X5250000Y-3350000D02*
X6750000Y-3350000D01*
X5250000Y-6650000D02*
X6750000Y-6650000D01*
X5250000Y-3350000D02*
X5250000Y-6650000D01*
X6750000Y-3350000D02*
X6750000Y-6650000D01*
X5800000Y-5100000D02*
X6200000Y-5100000D01*
X6200000Y-5100000D02*
X6000000Y-4900000D01*
X6000000Y-4900000D02*
X5800000Y-5100000D01*
X2350000Y-12750000D02*
X850000Y-12750000D01*
X2350000Y-9450000D02*
X850000Y-9450000D01*
X2350000Y-12750000D02*
X2350000Y-9450000D01*
X850000Y-12750000D02*
X850000Y-9450000D01*
X1800000Y-11000000D02*
X1400000Y-11000000D01*
X1400000Y-11000000D02*
X1600000Y-11200000D01*
X1600000Y-11200000D02*
X1800000Y-11000000D01*
X2350000Y-9450000D02*
X3850000Y-9450000D01*
X2350000Y-12750000D02*
X3850000Y-12750000D01*
X2350000Y-9450000D02*
X2350000Y-12750000D01*
X3850000Y-9450000D02*
X3850000Y-12750000D01*
X2900000Y-11200000D02*
X3300000Y-11200000D01*
X3300000Y-11200000D02*
X3100000Y-11000000D01*
X3100000Y-11000000D02*
X2900000Y-11200000D01*
X11150000Y4250000D02*
X11150000Y2750000D01*
X7850000Y4250000D02*
X7850000Y2750000D01*
X11150000Y4250000D02*
X7850000Y4250000D01*
X11150000Y2750000D02*
X7850000Y2750000D01*
X9400000Y3700000D02*
X9400000Y3300000D01*
X9400000Y3300000D02*
X9600000Y3500000D01*
X9600000Y3500000D02*
X9400000Y3700000D01*
X11150000Y2750000D02*
X11150000Y1250000D01*
X7850000Y2750000D02*
X7850000Y1250000D01*
X11150000Y2750000D02*
X7850000Y2750000D01*
X11150000Y1250000D02*
X7850000Y1250000D01*
X9400000Y2200000D02*
X9400000Y1800000D01*
X9400000Y1800000D02*
X9600000Y2000000D01*
X9600000Y2000000D02*
X9400000Y2200000D01*
X10150000Y17250000D02*
X10150000Y15750000D01*
X6850000Y17250000D02*
X6850000Y15750000D01*
X10150000Y17250000D02*
X6850000Y17250000D01*
X10150000Y15750000D02*
X6850000Y15750000D01*
X8400000Y16700000D02*
X8400000Y16300000D01*
X8400000Y16300000D02*
X8600000Y16500000D01*
X8600000Y16500000D02*
X8400000Y16700000D01*
X-1150000Y11550000D02*
X-1150000Y10050000D01*
X-4450000Y11550000D02*
X-4450000Y10050000D01*
X-1150000Y11550000D02*
X-4450000Y11550000D01*
X-1150000Y10050000D02*
X-4450000Y10050000D01*
X-2900000Y11000000D02*
X-2900000Y10600000D01*
X-2900000Y10600000D02*
X-2700000Y10800000D01*
X-2700000Y10800000D02*
X-2900000Y11000000D01*
X-350000Y10050000D02*
X-350000Y11550000D01*
X2950000Y10050000D02*
X2950000Y11550000D01*
X-350000Y10050000D02*
X2950000Y10050000D01*
X-350000Y11550000D02*
X2950000Y11550000D01*
X1400000Y10600000D02*
X1400000Y11000000D01*
X1400000Y11000000D02*
X1200000Y10800000D01*
X1200000Y10800000D02*
X1400000Y10600000D01*
X11150000Y12250000D02*
X11150000Y10750000D01*
X7850000Y12250000D02*
X7850000Y10750000D01*
X11150000Y12250000D02*
X7850000Y12250000D01*
X11150000Y10750000D02*
X7850000Y10750000D01*
X9400000Y11700000D02*
X9400000Y11300000D01*
X9400000Y11300000D02*
X9600000Y11500000D01*
X9600000Y11500000D02*
X9400000Y11700000D01*
X7850000Y13750000D02*
X7850000Y15250000D01*
X11150000Y13750000D02*
X11150000Y15250000D01*
X7850000Y13750000D02*
X11150000Y13750000D01*
X7850000Y15250000D02*
X11150000Y15250000D01*
X9600000Y14300000D02*
X9600000Y14700000D01*
X9600000Y14700000D02*
X9400000Y14500000D01*
X9400000Y14500000D02*
X9600000Y14300000D01*
X11150000Y13750000D02*
X11150000Y12250000D01*
X7850000Y13750000D02*
X7850000Y12250000D01*
X11150000Y13750000D02*
X7850000Y13750000D01*
X11150000Y12250000D02*
X7850000Y12250000D01*
X9400000Y13200000D02*
X9400000Y12800000D01*
X9400000Y12800000D02*
X9600000Y13000000D01*
X9600000Y13000000D02*
X9400000Y13200000D01*
X11150000Y10750000D02*
X11150000Y9250000D01*
X7850000Y10750000D02*
X7850000Y9250000D01*
X11150000Y10750000D02*
X7850000Y10750000D01*
X11150000Y9250000D02*
X7850000Y9250000D01*
X9400000Y10200000D02*
X9400000Y9800000D01*
X9400000Y9800000D02*
X9600000Y10000000D01*
X9600000Y10000000D02*
X9400000Y10200000D01*
X6360000Y-11320000D02*
X6360000Y-12250000D01*
X6360000Y-14480000D02*
X6360000Y-13550000D01*
X6360000Y-14480000D02*
X4900000Y-14480000D01*
X6360000Y-11320000D02*
X4900000Y-11320000D01*
X6360000Y-7720000D02*
X6360000Y-8650000D01*
X6360000Y-10880000D02*
X6360000Y-9950000D01*
X6360000Y-10880000D02*
X4900000Y-10880000D01*
X6360000Y-7720000D02*
X4900000Y-7720000D01*
X2950000Y13050000D02*
X2950000Y14550000D01*
X6250000Y13050000D02*
X6250000Y14550000D01*
X2950000Y13050000D02*
X6250000Y13050000D01*
X2950000Y14550000D02*
X6250000Y14550000D01*
X4700000Y13600000D02*
X4700000Y14000000D01*
X4700000Y14000000D02*
X4500000Y13800000D01*
X4500000Y13800000D02*
X4700000Y13600000D01*
X2950000Y14550000D02*
X2950000Y13050000D01*
X-350000Y14550000D02*
X-350000Y13050000D01*
X2950000Y14550000D02*
X-350000Y14550000D01*
X2950000Y13050000D02*
X-350000Y13050000D01*
X1200000Y14000000D02*
X1200000Y13600000D01*
X1200000Y13600000D02*
X1400000Y13800000D01*
X1400000Y13800000D02*
X1200000Y14000000D01*
X450000Y18250000D02*
X1950000Y18250000D01*
X450000Y14950000D02*
X1950000Y14950000D01*
X450000Y18250000D02*
X450000Y14950000D01*
X1950000Y18250000D02*
X1950000Y14950000D01*
X1000000Y16500000D02*
X1400000Y16500000D01*
X1400000Y16500000D02*
X1200000Y16700000D01*
X1200000Y16700000D02*
X1000000Y16500000D01*
X-4450000Y14950000D02*
X-4450000Y16850000D01*
X-4450000Y16850000D02*
X450000Y16850000D01*
X-4450000Y14950000D02*
X450000Y14950000D01*
X450000Y14950000D02*
X450000Y16850000D01*
X-1750000Y15500000D02*
X-1750000Y16300000D01*
X-1750000Y16300000D02*
X-2350000Y15900000D01*
X-2350000Y15900000D02*
X-1750000Y15500000D01*
X-1650000Y-14250000D02*
X-1650000Y-12750000D01*
X1650000Y-14250000D02*
X1650000Y-12750000D01*
X-1650000Y-14250000D02*
X1650000Y-14250000D01*
X-1650000Y-12750000D02*
X1650000Y-12750000D01*
X100000Y-13700000D02*
X100000Y-13300000D01*
X100000Y-13300000D02*
X-100000Y-13500000D01*
X-100000Y-13500000D02*
X100000Y-13700000D01*
X-1650000Y-9250000D02*
X-1650000Y-7750000D01*
X1650000Y-9250000D02*
X1650000Y-7750000D01*
X-1650000Y-9250000D02*
X1650000Y-9250000D01*
X-1650000Y-7750000D02*
X1650000Y-7750000D01*
X100000Y-8700000D02*
X100000Y-8300000D01*
X100000Y-8300000D02*
X-100000Y-8500000D01*
X-100000Y-8500000D02*
X100000Y-8700000D01*
X5350000Y2350000D02*
X5350000Y850000D01*
X2050000Y2350000D02*
X2050000Y850000D01*
X5350000Y2350000D02*
X2050000Y2350000D01*
X5350000Y850000D02*
X2050000Y850000D01*
X3600000Y1800000D02*
X3600000Y1400000D01*
X3600000Y1400000D02*
X3800000Y1600000D01*
X3800000Y1600000D02*
X3600000Y1800000D01*
X-1650000Y850000D02*
X-1650000Y2350000D01*
X1650000Y850000D02*
X1650000Y2350000D01*
X-1650000Y850000D02*
X1650000Y850000D01*
X-1650000Y2350000D02*
X1650000Y2350000D01*
X100000Y1400000D02*
X100000Y1800000D01*
X100000Y1800000D02*
X-100000Y1600000D01*
X-100000Y1600000D02*
X100000Y1400000D01*
X-7650000Y3671000D02*
X-7650000Y2171000D01*
X-10950000Y3671000D02*
X-10950000Y2171000D01*
X-7650000Y3671000D02*
X-10950000Y3671000D01*
X-7650000Y2171000D02*
X-10950000Y2171000D01*
X-9400000Y3121000D02*
X-9400000Y2721000D01*
X-9400000Y2721000D02*
X-9200000Y2921000D01*
X-9200000Y2921000D02*
X-9400000Y3121000D01*
X-7650000Y7950000D02*
X-7650000Y6450000D01*
X-10950000Y7950000D02*
X-10950000Y6450000D01*
X-7650000Y7950000D02*
X-10950000Y7950000D01*
X-7650000Y6450000D02*
X-10950000Y6450000D01*
X-9400000Y7400000D02*
X-9400000Y7000000D01*
X-9400000Y7000000D02*
X-9200000Y7200000D01*
X-9200000Y7200000D02*
X-9400000Y7400000D01*
X6850000Y9450000D02*
X6850000Y7950000D01*
X3550000Y9450000D02*
X3550000Y7950000D01*
X6850000Y9450000D02*
X3550000Y9450000D01*
X6850000Y7950000D02*
X3550000Y7950000D01*
X5100000Y8900000D02*
X5100000Y8500000D01*
X5100000Y8500000D02*
X5300000Y8700000D01*
X5300000Y8700000D02*
X5100000Y8900000D01*
X-2050000Y2350000D02*
X-2050000Y850000D01*
X-5350000Y2350000D02*
X-5350000Y850000D01*
X-2050000Y2350000D02*
X-5350000Y2350000D01*
X-2050000Y850000D02*
X-5350000Y850000D01*
X-3800000Y1800000D02*
X-3800000Y1400000D01*
X-3800000Y1400000D02*
X-3600000Y1600000D01*
X-3600000Y1600000D02*
X-3800000Y1800000D01*
X6250000Y13050000D02*
X6250000Y11550000D01*
X2950000Y13050000D02*
X2950000Y11550000D01*
X6250000Y13050000D02*
X2950000Y13050000D01*
X6250000Y11550000D02*
X2950000Y11550000D01*
X4500000Y12500000D02*
X4500000Y12100000D01*
X4500000Y12100000D02*
X4700000Y12300000D01*
X4700000Y12300000D02*
X4500000Y12500000D01*
X-350000Y11550000D02*
X-350000Y13050000D01*
X2950000Y11550000D02*
X2950000Y13050000D01*
X-350000Y11550000D02*
X2950000Y11550000D01*
X-350000Y13050000D02*
X2950000Y13050000D01*
X1400000Y12100000D02*
X1400000Y12500000D01*
X1400000Y12500000D02*
X1200000Y12300000D01*
X1200000Y12300000D02*
X1400000Y12100000D01*
X-3400000Y7000000D02*
X-3400000Y5000000D01*
X-2400000Y7000000D02*
X-2400000Y5000000D01*
X-2400000Y7000000D02*
X-3400000Y7000000D01*
X-2400000Y5000000D02*
X-3400000Y5000000D01*
X3400000Y4900000D02*
X3400000Y6900000D01*
X2400000Y4900000D02*
X2400000Y6900000D01*
X2400000Y4900000D02*
X3400000Y4900000D01*
X2400000Y6900000D02*
X3400000Y6900000D01*
X-8700000Y9350000D02*
X-8700000Y10850000D01*
X-5400000Y9350000D02*
X-5400000Y10850000D01*
X-8700000Y9350000D02*
X-5400000Y9350000D01*
X-8700000Y10850000D02*
X-5400000Y10850000D01*
X-6950000Y9900000D02*
X-6950000Y10300000D01*
X-6950000Y10300000D02*
X-7150000Y10100000D01*
X-7150000Y10100000D02*
X-6950000Y9900000D01*
X-12000000Y9350000D02*
X-12000000Y10850000D01*
X-8700000Y9350000D02*
X-8700000Y10850000D01*
X-12000000Y9350000D02*
X-8700000Y9350000D01*
X-12000000Y10850000D02*
X-8700000Y10850000D01*
X-10250000Y9900000D02*
X-10250000Y10300000D01*
X-10250000Y10300000D02*
X-10450000Y10100000D01*
X-10450000Y10100000D02*
X-10250000Y9900000D01*
X-5366666Y5514285D02*
X-5328571Y5476190D01*
X-5214285Y5438095D01*
X-5138095Y5438095D01*
X-5023809Y5476190D01*
X-4947619Y5552380D01*
X-4909523Y5628571D01*
X-4871428Y5780952D01*
X-4871428Y5895238D01*
X-4909523Y6047619D01*
X-4947619Y6123809D01*
X-5023809Y6200000D01*
X-5138095Y6238095D01*
X-5214285Y6238095D01*
X-5328571Y6200000D01*
X-5366666Y6161904D01*
X-5823809Y5895238D02*
X-5747619Y5933333D01*
X-5709523Y5971428D01*
X-5671428Y6047619D01*
X-5671428Y6085714D01*
X-5709523Y6161904D01*
X-5747619Y6200000D01*
X-5823809Y6238095D01*
X-5976190Y6238095D01*
X-6052380Y6200000D01*
X-6090476Y6161904D01*
X-6128571Y6085714D01*
X-6128571Y6047619D01*
X-6090476Y5971428D01*
X-6052380Y5933333D01*
X-5976190Y5895238D01*
X-5823809Y5895238D01*
X-5747619Y5857142D01*
X-5709523Y5819047D01*
X-5671428Y5742857D01*
X-5671428Y5590476D01*
X-5709523Y5514285D01*
X-5747619Y5476190D01*
X-5823809Y5438095D01*
X-5976190Y5438095D01*
X-6052380Y5476190D01*
X-6090476Y5514285D01*
X-6128571Y5590476D01*
X-6128571Y5742857D01*
X-6090476Y5819047D01*
X-6052380Y5857142D01*
X-5976190Y5895238D01*
X380952Y8419047D02*
X380952Y8038095D01*
X647619Y8838095D02*
X380952Y8419047D01*
X114285Y8838095D01*
X-571428Y8038095D02*
X-114285Y8038095D01*
X-342857Y8038095D02*
X-342857Y8838095D01*
X-266666Y8723809D01*
X-190476Y8647619D01*
X-114285Y8609523D01*
X-5090476Y18538095D02*
X-5090476Y17890476D01*
X-5128571Y17814285D01*
X-5166666Y17776190D01*
X-5242857Y17738095D01*
X-5395238Y17738095D01*
X-5471428Y17776190D01*
X-5509523Y17814285D01*
X-5547619Y17890476D01*
X-5547619Y18538095D01*
X-5890476Y18461904D02*
X-5928571Y18500000D01*
X-6004761Y18538095D01*
X-6195238Y18538095D01*
X-6271428Y18500000D01*
X-6309523Y18461904D01*
X-6347619Y18385714D01*
X-6347619Y18309523D01*
X-6309523Y18195238D01*
X-5852380Y17738095D01*
X-6347619Y17738095D01*
X10109523Y8938095D02*
X10109523Y8290476D01*
X10071428Y8214285D01*
X10033333Y8176190D01*
X9957142Y8138095D01*
X9804761Y8138095D01*
X9728571Y8176190D01*
X9690476Y8214285D01*
X9652380Y8290476D01*
X9652380Y8938095D01*
X8852380Y8138095D02*
X9309523Y8138095D01*
X9080952Y8138095D02*
X9080952Y8938095D01*
X9157142Y8823809D01*
X9233333Y8747619D01*
X9309523Y8709523D01*
X4861904Y-1585714D02*
X4480952Y-1319047D01*
X4861904Y-1128571D02*
X4061904Y-1128571D01*
X4061904Y-1433333D01*
X4100000Y-1509523D01*
X4138095Y-1547619D01*
X4214285Y-1585714D01*
X4328571Y-1585714D01*
X4404761Y-1547619D01*
X4442857Y-1509523D01*
X4480952Y-1433333D01*
X4480952Y-1128571D01*
X4861904Y-2347619D02*
X4861904Y-1890476D01*
X4861904Y-2119047D02*
X4061904Y-2119047D01*
X4176190Y-2042857D01*
X4252380Y-1966666D01*
X4290476Y-1890476D01*
X4061904Y-2614285D02*
X4061904Y-3109523D01*
X4366666Y-2842857D01*
X4366666Y-2957142D01*
X4404761Y-3033333D01*
X4442857Y-3071428D01*
X4519047Y-3109523D01*
X4709523Y-3109523D01*
X4785714Y-3071428D01*
X4823809Y-3033333D01*
X4861904Y-2957142D01*
X4861904Y-2728571D01*
X4823809Y-2652380D01*
X4785714Y-2614285D01*
X6361904Y-1585714D02*
X5980952Y-1319047D01*
X6361904Y-1128571D02*
X5561904Y-1128571D01*
X5561904Y-1433333D01*
X5600000Y-1509523D01*
X5638095Y-1547619D01*
X5714285Y-1585714D01*
X5828571Y-1585714D01*
X5904761Y-1547619D01*
X5942857Y-1509523D01*
X5980952Y-1433333D01*
X5980952Y-1128571D01*
X6361904Y-2347619D02*
X6361904Y-1890476D01*
X6361904Y-2119047D02*
X5561904Y-2119047D01*
X5676190Y-2042857D01*
X5752380Y-1966666D01*
X5790476Y-1890476D01*
X5638095Y-2652380D02*
X5600000Y-2690476D01*
X5561904Y-2766666D01*
X5561904Y-2957142D01*
X5600000Y-3033333D01*
X5638095Y-3071428D01*
X5714285Y-3109523D01*
X5790476Y-3109523D01*
X5904761Y-3071428D01*
X6361904Y-2614285D01*
X6361904Y-3109523D01*
X2661904Y-13385714D02*
X2280952Y-13119047D01*
X2661904Y-12928571D02*
X1861904Y-12928571D01*
X1861904Y-13233333D01*
X1900000Y-13309523D01*
X1938095Y-13347619D01*
X2014285Y-13385714D01*
X2128571Y-13385714D01*
X2204761Y-13347619D01*
X2242857Y-13309523D01*
X2280952Y-13233333D01*
X2280952Y-12928571D01*
X2661904Y-14147619D02*
X2661904Y-13690476D01*
X2661904Y-13919047D02*
X1861904Y-13919047D01*
X1976190Y-13842857D01*
X2052380Y-13766666D01*
X2090476Y-13690476D01*
X2661904Y-14909523D02*
X2661904Y-14452380D01*
X2661904Y-14680952D02*
X1861904Y-14680952D01*
X1976190Y-14604761D01*
X2052380Y-14528571D01*
X2090476Y-14452380D01*
X3761904Y-13385714D02*
X3380952Y-13119047D01*
X3761904Y-12928571D02*
X2961904Y-12928571D01*
X2961904Y-13233333D01*
X3000000Y-13309523D01*
X3038095Y-13347619D01*
X3114285Y-13385714D01*
X3228571Y-13385714D01*
X3304761Y-13347619D01*
X3342857Y-13309523D01*
X3380952Y-13233333D01*
X3380952Y-12928571D01*
X3761904Y-14147619D02*
X3761904Y-13690476D01*
X3761904Y-13919047D02*
X2961904Y-13919047D01*
X3076190Y-13842857D01*
X3152380Y-13766666D01*
X3190476Y-13690476D01*
X2961904Y-14642857D02*
X2961904Y-14719047D01*
X3000000Y-14795238D01*
X3038095Y-14833333D01*
X3114285Y-14871428D01*
X3266666Y-14909523D01*
X3457142Y-14909523D01*
X3609523Y-14871428D01*
X3685714Y-14833333D01*
X3723809Y-14795238D01*
X3761904Y-14719047D01*
X3761904Y-14642857D01*
X3723809Y-14566666D01*
X3685714Y-14528571D01*
X3609523Y-14490476D01*
X3457142Y-14452380D01*
X3266666Y-14452380D01*
X3114285Y-14490476D01*
X3038095Y-14528571D01*
X3000000Y-14566666D01*
X2961904Y-14642857D01*
X7233333Y3138095D02*
X7500000Y3519047D01*
X7690476Y3138095D02*
X7690476Y3938095D01*
X7385714Y3938095D01*
X7309523Y3900000D01*
X7271428Y3861904D01*
X7233333Y3785714D01*
X7233333Y3671428D01*
X7271428Y3595238D01*
X7309523Y3557142D01*
X7385714Y3519047D01*
X7690476Y3519047D01*
X6852380Y3138095D02*
X6700000Y3138095D01*
X6623809Y3176190D01*
X6585714Y3214285D01*
X6509523Y3328571D01*
X6471428Y3480952D01*
X6471428Y3785714D01*
X6509523Y3861904D01*
X6547619Y3900000D01*
X6623809Y3938095D01*
X6776190Y3938095D01*
X6852380Y3900000D01*
X6890476Y3861904D01*
X6928571Y3785714D01*
X6928571Y3595238D01*
X6890476Y3519047D01*
X6852380Y3480952D01*
X6776190Y3442857D01*
X6623809Y3442857D01*
X6547619Y3480952D01*
X6509523Y3519047D01*
X6471428Y3595238D01*
X7233333Y1638095D02*
X7500000Y2019047D01*
X7690476Y1638095D02*
X7690476Y2438095D01*
X7385714Y2438095D01*
X7309523Y2400000D01*
X7271428Y2361904D01*
X7233333Y2285714D01*
X7233333Y2171428D01*
X7271428Y2095238D01*
X7309523Y2057142D01*
X7385714Y2019047D01*
X7690476Y2019047D01*
X6776190Y2095238D02*
X6852380Y2133333D01*
X6890476Y2171428D01*
X6928571Y2247619D01*
X6928571Y2285714D01*
X6890476Y2361904D01*
X6852380Y2400000D01*
X6776190Y2438095D01*
X6623809Y2438095D01*
X6547619Y2400000D01*
X6509523Y2361904D01*
X6471428Y2285714D01*
X6471428Y2247619D01*
X6509523Y2171428D01*
X6547619Y2133333D01*
X6623809Y2095238D01*
X6776190Y2095238D01*
X6852380Y2057142D01*
X6890476Y2019047D01*
X6928571Y1942857D01*
X6928571Y1790476D01*
X6890476Y1714285D01*
X6852380Y1676190D01*
X6776190Y1638095D01*
X6623809Y1638095D01*
X6547619Y1676190D01*
X6509523Y1714285D01*
X6471428Y1790476D01*
X6471428Y1942857D01*
X6509523Y2019047D01*
X6547619Y2057142D01*
X6623809Y2095238D01*
X8633333Y17538095D02*
X8900000Y17919047D01*
X9090476Y17538095D02*
X9090476Y18338095D01*
X8785714Y18338095D01*
X8709523Y18300000D01*
X8671428Y18261904D01*
X8633333Y18185714D01*
X8633333Y18071428D01*
X8671428Y17995238D01*
X8709523Y17957142D01*
X8785714Y17919047D01*
X9090476Y17919047D01*
X8366666Y18338095D02*
X7833333Y18338095D01*
X8176190Y17538095D01*
X-2666666Y9038095D02*
X-2400000Y9419047D01*
X-2209523Y9038095D02*
X-2209523Y9838095D01*
X-2514285Y9838095D01*
X-2590476Y9800000D01*
X-2628571Y9761904D01*
X-2666666Y9685714D01*
X-2666666Y9571428D01*
X-2628571Y9495238D01*
X-2590476Y9457142D01*
X-2514285Y9419047D01*
X-2209523Y9419047D01*
X-3352380Y9838095D02*
X-3200000Y9838095D01*
X-3123809Y9800000D01*
X-3085714Y9761904D01*
X-3009523Y9647619D01*
X-2971428Y9495238D01*
X-2971428Y9190476D01*
X-3009523Y9114285D01*
X-3047619Y9076190D01*
X-3123809Y9038095D01*
X-3276190Y9038095D01*
X-3352380Y9076190D01*
X-3390476Y9114285D01*
X-3428571Y9190476D01*
X-3428571Y9380952D01*
X-3390476Y9457142D01*
X-3352380Y9495238D01*
X-3276190Y9533333D01*
X-3123809Y9533333D01*
X-3047619Y9495238D01*
X-3009523Y9457142D01*
X-2971428Y9380952D01*
X1433333Y9038095D02*
X1700000Y9419047D01*
X1890476Y9038095D02*
X1890476Y9838095D01*
X1585714Y9838095D01*
X1509523Y9800000D01*
X1471428Y9761904D01*
X1433333Y9685714D01*
X1433333Y9571428D01*
X1471428Y9495238D01*
X1509523Y9457142D01*
X1585714Y9419047D01*
X1890476Y9419047D01*
X709523Y9838095D02*
X1090476Y9838095D01*
X1128571Y9457142D01*
X1090476Y9495238D01*
X1014285Y9533333D01*
X823809Y9533333D01*
X747619Y9495238D01*
X709523Y9457142D01*
X671428Y9380952D01*
X671428Y9190476D01*
X709523Y9114285D01*
X747619Y9076190D01*
X823809Y9038095D01*
X1014285Y9038095D01*
X1090476Y9076190D01*
X1128571Y9114285D01*
X7233333Y11138095D02*
X7500000Y11519047D01*
X7690476Y11138095D02*
X7690476Y11938095D01*
X7385714Y11938095D01*
X7309523Y11900000D01*
X7271428Y11861904D01*
X7233333Y11785714D01*
X7233333Y11671428D01*
X7271428Y11595238D01*
X7309523Y11557142D01*
X7385714Y11519047D01*
X7690476Y11519047D01*
X6547619Y11671428D02*
X6547619Y11138095D01*
X6738095Y11976190D02*
X6928571Y11404761D01*
X6433333Y11404761D01*
X7233333Y14138095D02*
X7500000Y14519047D01*
X7690476Y14138095D02*
X7690476Y14938095D01*
X7385714Y14938095D01*
X7309523Y14900000D01*
X7271428Y14861904D01*
X7233333Y14785714D01*
X7233333Y14671428D01*
X7271428Y14595238D01*
X7309523Y14557142D01*
X7385714Y14519047D01*
X7690476Y14519047D01*
X6966666Y14938095D02*
X6471428Y14938095D01*
X6738095Y14633333D01*
X6623809Y14633333D01*
X6547619Y14595238D01*
X6509523Y14557142D01*
X6471428Y14480952D01*
X6471428Y14290476D01*
X6509523Y14214285D01*
X6547619Y14176190D01*
X6623809Y14138095D01*
X6852380Y14138095D01*
X6928571Y14176190D01*
X6966666Y14214285D01*
X7233333Y12638095D02*
X7500000Y13019047D01*
X7690476Y12638095D02*
X7690476Y13438095D01*
X7385714Y13438095D01*
X7309523Y13400000D01*
X7271428Y13361904D01*
X7233333Y13285714D01*
X7233333Y13171428D01*
X7271428Y13095238D01*
X7309523Y13057142D01*
X7385714Y13019047D01*
X7690476Y13019047D01*
X6928571Y13361904D02*
X6890476Y13400000D01*
X6814285Y13438095D01*
X6623809Y13438095D01*
X6547619Y13400000D01*
X6509523Y13361904D01*
X6471428Y13285714D01*
X6471428Y13209523D01*
X6509523Y13095238D01*
X6966666Y12638095D01*
X6471428Y12638095D01*
X7233333Y9638095D02*
X7500000Y10019047D01*
X7690476Y9638095D02*
X7690476Y10438095D01*
X7385714Y10438095D01*
X7309523Y10400000D01*
X7271428Y10361904D01*
X7233333Y10285714D01*
X7233333Y10171428D01*
X7271428Y10095238D01*
X7309523Y10057142D01*
X7385714Y10019047D01*
X7690476Y10019047D01*
X6471428Y9638095D02*
X6928571Y9638095D01*
X6700000Y9638095D02*
X6700000Y10438095D01*
X6776190Y10323809D01*
X6852380Y10247619D01*
X6928571Y10209523D01*
X7276190Y-12238095D02*
X7352380Y-12200000D01*
X7428571Y-12123809D01*
X7542857Y-12009523D01*
X7619047Y-11971428D01*
X7695238Y-11971428D01*
X7657142Y-12161904D02*
X7733333Y-12123809D01*
X7809523Y-12047619D01*
X7847619Y-11895238D01*
X7847619Y-11628571D01*
X7809523Y-11476190D01*
X7733333Y-11400000D01*
X7657142Y-11361904D01*
X7504761Y-11361904D01*
X7428571Y-11400000D01*
X7352380Y-11476190D01*
X7314285Y-11628571D01*
X7314285Y-11895238D01*
X7352380Y-12047619D01*
X7428571Y-12123809D01*
X7504761Y-12161904D01*
X7657142Y-12161904D01*
X7009523Y-11438095D02*
X6971428Y-11400000D01*
X6895238Y-11361904D01*
X6704761Y-11361904D01*
X6628571Y-11400000D01*
X6590476Y-11438095D01*
X6552380Y-11514285D01*
X6552380Y-11590476D01*
X6590476Y-11704761D01*
X7047619Y-12161904D01*
X6552380Y-12161904D01*
X7276190Y-8638095D02*
X7352380Y-8600000D01*
X7428571Y-8523809D01*
X7542857Y-8409523D01*
X7619047Y-8371428D01*
X7695238Y-8371428D01*
X7657142Y-8561904D02*
X7733333Y-8523809D01*
X7809523Y-8447619D01*
X7847619Y-8295238D01*
X7847619Y-8028571D01*
X7809523Y-7876190D01*
X7733333Y-7800000D01*
X7657142Y-7761904D01*
X7504761Y-7761904D01*
X7428571Y-7800000D01*
X7352380Y-7876190D01*
X7314285Y-8028571D01*
X7314285Y-8295238D01*
X7352380Y-8447619D01*
X7428571Y-8523809D01*
X7504761Y-8561904D01*
X7657142Y-8561904D01*
X6552380Y-8561904D02*
X7009523Y-8561904D01*
X6780952Y-8561904D02*
X6780952Y-7761904D01*
X6857142Y-7876190D01*
X6933333Y-7952380D01*
X7009523Y-7990476D01*
X4733333Y14738095D02*
X5114285Y14738095D01*
X5114285Y15538095D01*
X4542857Y15538095D02*
X4047619Y15538095D01*
X4314285Y15233333D01*
X4200000Y15233333D01*
X4123809Y15195238D01*
X4085714Y15157142D01*
X4047619Y15080952D01*
X4047619Y14890476D01*
X4085714Y14814285D01*
X4123809Y14776190D01*
X4200000Y14738095D01*
X4428571Y14738095D01*
X4504761Y14776190D01*
X4542857Y14814285D01*
X2833333Y14738095D02*
X3214285Y14738095D01*
X3214285Y15538095D01*
X2604761Y15461904D02*
X2566666Y15500000D01*
X2490476Y15538095D01*
X2300000Y15538095D01*
X2223809Y15500000D01*
X2185714Y15461904D01*
X2147619Y15385714D01*
X2147619Y15309523D01*
X2185714Y15195238D01*
X2642857Y14738095D01*
X2147619Y14738095D01*
X1333333Y18438095D02*
X1714285Y18438095D01*
X1714285Y19238095D01*
X647619Y18438095D02*
X1104761Y18438095D01*
X876190Y18438095D02*
X876190Y19238095D01*
X952380Y19123809D01*
X1028571Y19047619D01*
X1104761Y19009523D01*
X-309523Y17038095D02*
X-309523Y17838095D01*
X-500000Y17838095D01*
X-614285Y17800000D01*
X-690476Y17723809D01*
X-728571Y17647619D01*
X-766666Y17495238D01*
X-766666Y17380952D01*
X-728571Y17228571D01*
X-690476Y17152380D01*
X-614285Y17076190D01*
X-500000Y17038095D01*
X-309523Y17038095D01*
X-1528571Y17038095D02*
X-1071428Y17038095D01*
X-1300000Y17038095D02*
X-1300000Y17838095D01*
X-1223809Y17723809D01*
X-1147619Y17647619D01*
X-1071428Y17609523D01*
X-2385714Y-13785714D02*
X-2347619Y-13823809D01*
X-2233333Y-13861904D01*
X-2157142Y-13861904D01*
X-2042857Y-13823809D01*
X-1966666Y-13747619D01*
X-1928571Y-13671428D01*
X-1890476Y-13519047D01*
X-1890476Y-13404761D01*
X-1928571Y-13252380D01*
X-1966666Y-13176190D01*
X-2042857Y-13100000D01*
X-2157142Y-13061904D01*
X-2233333Y-13061904D01*
X-2347619Y-13100000D01*
X-2385714Y-13138095D01*
X-3147619Y-13861904D02*
X-2690476Y-13861904D01*
X-2919047Y-13861904D02*
X-2919047Y-13061904D01*
X-2842857Y-13176190D01*
X-2766666Y-13252380D01*
X-2690476Y-13290476D01*
X-3833333Y-13061904D02*
X-3680952Y-13061904D01*
X-3604761Y-13100000D01*
X-3566666Y-13138095D01*
X-3490476Y-13252380D01*
X-3452380Y-13404761D01*
X-3452380Y-13709523D01*
X-3490476Y-13785714D01*
X-3528571Y-13823809D01*
X-3604761Y-13861904D01*
X-3757142Y-13861904D01*
X-3833333Y-13823809D01*
X-3871428Y-13785714D01*
X-3909523Y-13709523D01*
X-3909523Y-13519047D01*
X-3871428Y-13442857D01*
X-3833333Y-13404761D01*
X-3757142Y-13366666D01*
X-3604761Y-13366666D01*
X-3528571Y-13404761D01*
X-3490476Y-13442857D01*
X-3452380Y-13519047D01*
X-2385714Y-8785714D02*
X-2347619Y-8823809D01*
X-2233333Y-8861904D01*
X-2157142Y-8861904D01*
X-2042857Y-8823809D01*
X-1966666Y-8747619D01*
X-1928571Y-8671428D01*
X-1890476Y-8519047D01*
X-1890476Y-8404761D01*
X-1928571Y-8252380D01*
X-1966666Y-8176190D01*
X-2042857Y-8100000D01*
X-2157142Y-8061904D01*
X-2233333Y-8061904D01*
X-2347619Y-8100000D01*
X-2385714Y-8138095D01*
X-3147619Y-8861904D02*
X-2690476Y-8861904D01*
X-2919047Y-8861904D02*
X-2919047Y-8061904D01*
X-2842857Y-8176190D01*
X-2766666Y-8252380D01*
X-2690476Y-8290476D01*
X-3871428Y-8061904D02*
X-3490476Y-8061904D01*
X-3452380Y-8442857D01*
X-3490476Y-8404761D01*
X-3566666Y-8366666D01*
X-3757142Y-8366666D01*
X-3833333Y-8404761D01*
X-3871428Y-8442857D01*
X-3909523Y-8519047D01*
X-3909523Y-8709523D01*
X-3871428Y-8785714D01*
X-3833333Y-8823809D01*
X-3757142Y-8861904D01*
X-3566666Y-8861904D01*
X-3490476Y-8823809D01*
X-3452380Y-8785714D01*
X4214285Y-85714D02*
X4252380Y-123809D01*
X4366666Y-161904D01*
X4442857Y-161904D01*
X4557142Y-123809D01*
X4633333Y-47619D01*
X4671428Y28571D01*
X4709523Y180952D01*
X4709523Y295238D01*
X4671428Y447619D01*
X4633333Y523809D01*
X4557142Y600000D01*
X4442857Y638095D01*
X4366666Y638095D01*
X4252380Y600000D01*
X4214285Y561904D01*
X3452380Y-161904D02*
X3909523Y-161904D01*
X3680952Y-161904D02*
X3680952Y638095D01*
X3757142Y523809D01*
X3833333Y447619D01*
X3909523Y409523D01*
X2766666Y371428D02*
X2766666Y-161904D01*
X2957142Y676190D02*
X3147619Y104761D01*
X2652380Y104761D01*
X514285Y-85714D02*
X552380Y-123809D01*
X666666Y-161904D01*
X742857Y-161904D01*
X857142Y-123809D01*
X933333Y-47619D01*
X971428Y28571D01*
X1009523Y180952D01*
X1009523Y295238D01*
X971428Y447619D01*
X933333Y523809D01*
X857142Y600000D01*
X742857Y638095D01*
X666666Y638095D01*
X552380Y600000D01*
X514285Y561904D01*
X-247619Y-161904D02*
X209523Y-161904D01*
X-19047Y-161904D02*
X-19047Y638095D01*
X57142Y523809D01*
X133333Y447619D01*
X209523Y409523D01*
X-514285Y638095D02*
X-1009523Y638095D01*
X-742857Y333333D01*
X-857142Y333333D01*
X-933333Y295238D01*
X-971428Y257142D01*
X-1009523Y180952D01*
X-1009523Y-9523D01*
X-971428Y-85714D01*
X-933333Y-123809D01*
X-857142Y-161904D01*
X-628571Y-161904D01*
X-552380Y-123809D01*
X-514285Y-85714D01*
X-8785714Y3914285D02*
X-8747619Y3876190D01*
X-8633333Y3838095D01*
X-8557142Y3838095D01*
X-8442857Y3876190D01*
X-8366666Y3952380D01*
X-8328571Y4028571D01*
X-8290476Y4180952D01*
X-8290476Y4295238D01*
X-8328571Y4447619D01*
X-8366666Y4523809D01*
X-8442857Y4600000D01*
X-8557142Y4638095D01*
X-8633333Y4638095D01*
X-8747619Y4600000D01*
X-8785714Y4561904D01*
X-9547619Y3838095D02*
X-9090476Y3838095D01*
X-9319047Y3838095D02*
X-9319047Y4638095D01*
X-9242857Y4523809D01*
X-9166666Y4447619D01*
X-9090476Y4409523D01*
X-9852380Y4561904D02*
X-9890476Y4600000D01*
X-9966666Y4638095D01*
X-10157142Y4638095D01*
X-10233333Y4600000D01*
X-10271428Y4561904D01*
X-10309523Y4485714D01*
X-10309523Y4409523D01*
X-10271428Y4295238D01*
X-9814285Y3838095D01*
X-10309523Y3838095D01*
X-8785714Y5514285D02*
X-8747619Y5476190D01*
X-8633333Y5438095D01*
X-8557142Y5438095D01*
X-8442857Y5476190D01*
X-8366666Y5552380D01*
X-8328571Y5628571D01*
X-8290476Y5780952D01*
X-8290476Y5895238D01*
X-8328571Y6047619D01*
X-8366666Y6123809D01*
X-8442857Y6200000D01*
X-8557142Y6238095D01*
X-8633333Y6238095D01*
X-8747619Y6200000D01*
X-8785714Y6161904D01*
X-9547619Y5438095D02*
X-9090476Y5438095D01*
X-9319047Y5438095D02*
X-9319047Y6238095D01*
X-9242857Y6123809D01*
X-9166666Y6047619D01*
X-9090476Y6009523D01*
X-10309523Y5438095D02*
X-9852380Y5438095D01*
X-10080952Y5438095D02*
X-10080952Y6238095D01*
X-10004761Y6123809D01*
X-9928571Y6047619D01*
X-9852380Y6009523D01*
X5714285Y7014285D02*
X5752380Y6976190D01*
X5866666Y6938095D01*
X5942857Y6938095D01*
X6057142Y6976190D01*
X6133333Y7052380D01*
X6171428Y7128571D01*
X6209523Y7280952D01*
X6209523Y7395238D01*
X6171428Y7547619D01*
X6133333Y7623809D01*
X6057142Y7700000D01*
X5942857Y7738095D01*
X5866666Y7738095D01*
X5752380Y7700000D01*
X5714285Y7661904D01*
X4952380Y6938095D02*
X5409523Y6938095D01*
X5180952Y6938095D02*
X5180952Y7738095D01*
X5257142Y7623809D01*
X5333333Y7547619D01*
X5409523Y7509523D01*
X4457142Y7738095D02*
X4380952Y7738095D01*
X4304761Y7700000D01*
X4266666Y7661904D01*
X4228571Y7585714D01*
X4190476Y7433333D01*
X4190476Y7242857D01*
X4228571Y7090476D01*
X4266666Y7014285D01*
X4304761Y6976190D01*
X4380952Y6938095D01*
X4457142Y6938095D01*
X4533333Y6976190D01*
X4571428Y7014285D01*
X4609523Y7090476D01*
X4647619Y7242857D01*
X4647619Y7433333D01*
X4609523Y7585714D01*
X4571428Y7661904D01*
X4533333Y7700000D01*
X4457142Y7738095D01*
X-3566666Y-85714D02*
X-3528571Y-123809D01*
X-3414285Y-161904D01*
X-3338095Y-161904D01*
X-3223809Y-123809D01*
X-3147619Y-47619D01*
X-3109523Y28571D01*
X-3071428Y180952D01*
X-3071428Y295238D01*
X-3109523Y447619D01*
X-3147619Y523809D01*
X-3223809Y600000D01*
X-3338095Y638095D01*
X-3414285Y638095D01*
X-3528571Y600000D01*
X-3566666Y561904D01*
X-3947619Y-161904D02*
X-4099999Y-161904D01*
X-4176190Y-123809D01*
X-4214285Y-85714D01*
X-4290476Y28571D01*
X-4328571Y180952D01*
X-4328571Y485714D01*
X-4290476Y561904D01*
X-4252380Y600000D01*
X-4176190Y638095D01*
X-4023809Y638095D01*
X-3947619Y600000D01*
X-3909523Y561904D01*
X-3871428Y485714D01*
X-3871428Y295238D01*
X-3909523Y219047D01*
X-3947619Y180952D01*
X-4023809Y142857D01*
X-4176190Y142857D01*
X-4252380Y180952D01*
X-4290476Y219047D01*
X-4328571Y295238D01*
X4733333Y10614285D02*
X4771428Y10576190D01*
X4885714Y10538095D01*
X4961904Y10538095D01*
X5076190Y10576190D01*
X5152380Y10652380D01*
X5190476Y10728571D01*
X5228571Y10880952D01*
X5228571Y10995238D01*
X5190476Y11147619D01*
X5152380Y11223809D01*
X5076190Y11300000D01*
X4961904Y11338095D01*
X4885714Y11338095D01*
X4771428Y11300000D01*
X4733333Y11261904D01*
X4466666Y11338095D02*
X3933333Y11338095D01*
X4276190Y10538095D01*
X-1066666Y12014285D02*
X-1028571Y11976190D01*
X-914285Y11938095D01*
X-838095Y11938095D01*
X-723809Y11976190D01*
X-647619Y12052380D01*
X-609523Y12128571D01*
X-571428Y12280952D01*
X-571428Y12395238D01*
X-609523Y12547619D01*
X-647619Y12623809D01*
X-723809Y12700000D01*
X-838095Y12738095D01*
X-914285Y12738095D01*
X-1028571Y12700000D01*
X-1066666Y12661904D01*
X-1752380Y12738095D02*
X-1600000Y12738095D01*
X-1523809Y12700000D01*
X-1485714Y12661904D01*
X-1409523Y12547619D01*
X-1371428Y12395238D01*
X-1371428Y12090476D01*
X-1409523Y12014285D01*
X-1447619Y11976190D01*
X-1523809Y11938095D01*
X-1676190Y11938095D01*
X-1752380Y11976190D01*
X-1790476Y12014285D01*
X-1828571Y12090476D01*
X-1828571Y12280952D01*
X-1790476Y12357142D01*
X-1752380Y12395238D01*
X-1676190Y12433333D01*
X-1523809Y12433333D01*
X-1447619Y12395238D01*
X-1409523Y12357142D01*
X-1371428Y12280952D01*
X-2766666Y7314285D02*
X-2728571Y7276190D01*
X-2614285Y7238095D01*
X-2538095Y7238095D01*
X-2423809Y7276190D01*
X-2347619Y7352380D01*
X-2309523Y7428571D01*
X-2271428Y7580952D01*
X-2271428Y7695238D01*
X-2309523Y7847619D01*
X-2347619Y7923809D01*
X-2423809Y8000000D01*
X-2538095Y8038095D01*
X-2614285Y8038095D01*
X-2728571Y8000000D01*
X-2766666Y7961904D01*
X-3490476Y8038095D02*
X-3109523Y8038095D01*
X-3071428Y7657142D01*
X-3109523Y7695238D01*
X-3185714Y7733333D01*
X-3376190Y7733333D01*
X-3452380Y7695238D01*
X-3490476Y7657142D01*
X-3528571Y7580952D01*
X-3528571Y7390476D01*
X-3490476Y7314285D01*
X-3452380Y7276190D01*
X-3376190Y7238095D01*
X-3185714Y7238095D01*
X-3109523Y7276190D01*
X-3071428Y7314285D01*
X3033333Y7214285D02*
X3071428Y7176190D01*
X3185714Y7138095D01*
X3261904Y7138095D01*
X3376190Y7176190D01*
X3452380Y7252380D01*
X3490476Y7328571D01*
X3528571Y7480952D01*
X3528571Y7595238D01*
X3490476Y7747619D01*
X3452380Y7823809D01*
X3376190Y7900000D01*
X3261904Y7938095D01*
X3185714Y7938095D01*
X3071428Y7900000D01*
X3033333Y7861904D01*
X2347619Y7671428D02*
X2347619Y7138095D01*
X2538095Y7976190D02*
X2728571Y7404761D01*
X2233333Y7404761D01*
X-6916666Y8414285D02*
X-6878571Y8376190D01*
X-6764285Y8338095D01*
X-6688095Y8338095D01*
X-6573809Y8376190D01*
X-6497619Y8452380D01*
X-6459523Y8528571D01*
X-6421428Y8680952D01*
X-6421428Y8795238D01*
X-6459523Y8947619D01*
X-6497619Y9023809D01*
X-6573809Y9100000D01*
X-6688095Y9138095D01*
X-6764285Y9138095D01*
X-6878571Y9100000D01*
X-6916666Y9061904D01*
X-7221428Y9061904D02*
X-7259523Y9100000D01*
X-7335714Y9138095D01*
X-7526190Y9138095D01*
X-7602380Y9100000D01*
X-7640476Y9061904D01*
X-7678571Y8985714D01*
X-7678571Y8909523D01*
X-7640476Y8795238D01*
X-7183333Y8338095D01*
X-7678571Y8338095D01*
X-10216666Y8414285D02*
X-10178571Y8376190D01*
X-10064285Y8338095D01*
X-9988095Y8338095D01*
X-9873809Y8376190D01*
X-9797619Y8452380D01*
X-9759523Y8528571D01*
X-9721428Y8680952D01*
X-9721428Y8795238D01*
X-9759523Y8947619D01*
X-9797619Y9023809D01*
X-9873809Y9100000D01*
X-9988095Y9138095D01*
X-10064285Y9138095D01*
X-10178571Y9100000D01*
X-10216666Y9061904D01*
X-10978571Y8338095D02*
X-10521428Y8338095D01*
X-10750000Y8338095D02*
X-10750000Y9138095D01*
X-10673809Y9023809D01*
X-10597619Y8947619D01*
X-10521428Y8909523D01*
M02*
