M48
; DRILL file {KiCad (5.1.10-1-10_14)} date Wednesday, December 01, 2021 at 11:12:52 PM
; FORMAT={-:-/ absolute / metric / decimal}
; #@! TF.CreationDate,2021-12-01T23:12:52+09:00
; #@! TF.GenerationSoftware,Kicad,Pcbnew,(5.1.10-1-10_14)
FMAT,2
METRIC
T1C0.305
T2C0.800
T3C0.750
%
G90
G05
T1
X-10.15Y5.05
X-8.7Y15.2
X-8.258Y9.063
X-5.0Y11.6
X-4.3Y5.8
X-4.3Y3.0
X-4.0Y3.9
X-3.86Y9.5
X-2.627Y9.589
X-2.0Y2.9
X-1.75Y9.439
X-0.85Y-11.05
X-0.689Y12.899
X-0.3Y17.3
X0.0Y6.1
X0.731Y-6.373
X0.8Y2.9
X0.928Y8.741
X1.042Y9.587
X2.018Y9.582
X3.143Y-9.039
X3.435Y7.487
X4.0Y3.2
X4.497Y-0.196
X5.948Y0.638
X6.0Y9.79
X7.25Y5.913
X7.339Y7.299
X7.9Y-12.6
X8.092Y8.583
X8.887Y9.067
X9.406Y12.205
X9.5Y1.362
X10.7Y16.5
X11.2Y4.7
T2
X-8.89Y-1.27
X-8.89Y-3.81
X-8.89Y-6.35
X-8.89Y-8.89
X-8.89Y-11.43
X-8.89Y-13.97
X-3.25Y18.1
X3.25Y18.1
X8.89Y-1.27
X8.89Y-3.81
X8.89Y-6.35
X8.89Y-8.89
X8.89Y-11.43
X8.89Y-13.97
T3
X0.0Y-5.1
X0.0Y-6.9
X0.0Y-10.1
X0.0Y-11.9
T0
M30
