G04 #@! TF.GenerationSoftware,KiCad,Pcbnew,(5.1.10-1-10_14)*
G04 #@! TF.CreationDate,2021-12-01T23:12:48+09:00*
G04 #@! TF.ProjectId,DBG-ESP32,4442472d-4553-4503-9332-2e6b69636164,V1.0*
G04 #@! TF.SameCoordinates,Original*
G04 #@! TF.FileFunction,Copper,L1,Top*
G04 #@! TF.FilePolarity,Positive*
%FSLAX46Y46*%
G04 Gerber Fmt 4.6, Leading zero omitted, Abs format (unit mm)*
G04 Created by KiCad (PCBNEW (5.1.10-1-10_14)) date 2021-12-01 23:12:48*
%MOMM*%
%LPD*%
G01*
G04 APERTURE LIST*
G04 #@! TA.AperFunction,SMDPad,CuDef*
%ADD10R,0.300000X1.750000*%
G04 #@! TD*
G04 #@! TA.AperFunction,SMDPad,CuDef*
%ADD11R,2.100000X1.600000*%
G04 #@! TD*
G04 #@! TA.AperFunction,ComponentPad*
%ADD12R,1.800000X1.900000*%
G04 #@! TD*
G04 #@! TA.AperFunction,ComponentPad*
%ADD13R,1.400000X1.400000*%
G04 #@! TD*
G04 #@! TA.AperFunction,ComponentPad*
%ADD14C,1.400000*%
G04 #@! TD*
G04 #@! TA.AperFunction,SMDPad,CuDef*
%ADD15R,0.150000X1.400000*%
G04 #@! TD*
G04 #@! TA.AperFunction,SMDPad,CuDef*
%ADD16R,1.400000X0.150000*%
G04 #@! TD*
G04 #@! TA.AperFunction,SMDPad,CuDef*
%ADD17R,1.000000X1.600000*%
G04 #@! TD*
G04 #@! TA.AperFunction,ViaPad*
%ADD18C,0.609600*%
G04 #@! TD*
G04 #@! TA.AperFunction,Conductor*
%ADD19C,0.203200*%
G04 #@! TD*
G04 #@! TA.AperFunction,Conductor*
%ADD20C,0.152400*%
G04 #@! TD*
G04 #@! TA.AperFunction,Conductor*
%ADD21C,0.508000*%
G04 #@! TD*
G04 #@! TA.AperFunction,Conductor*
%ADD22C,0.254000*%
G04 #@! TD*
G04 #@! TA.AperFunction,Conductor*
%ADD23C,0.100000*%
G04 #@! TD*
G04 APERTURE END LIST*
D10*
X1300000Y15225000D03*
X650000Y15225000D03*
X0Y15225000D03*
X-650000Y15225000D03*
X-1300000Y15225000D03*
D11*
X3100000Y15550000D03*
X-3100000Y15550000D03*
D12*
X3250000Y18100000D03*
X-3250000Y18100000D03*
D13*
X8890000Y-1270000D03*
D14*
X8890000Y-3810000D03*
X8890000Y-6350000D03*
X8890000Y-8890000D03*
X8890000Y-11430000D03*
X8890000Y-13970000D03*
X-8890000Y-13970000D03*
X-8890000Y-11430000D03*
X-8890000Y-8890000D03*
X-8890000Y-6350000D03*
X-8890000Y-3810000D03*
D13*
X-8890000Y-1270000D03*
D15*
X3750000Y10800000D03*
X3250000Y10800000D03*
X2750000Y10800000D03*
X2250000Y10800000D03*
X1750000Y10800000D03*
X1250000Y10800000D03*
X750000Y10800000D03*
X250000Y10800000D03*
X-250000Y10800000D03*
X-750000Y10800000D03*
X-1250000Y10800000D03*
X-1750000Y10800000D03*
X-2250000Y10800000D03*
X-2750000Y10800000D03*
X-3250000Y10800000D03*
X-3750000Y10800000D03*
D16*
X-5800000Y8750000D03*
X-5800000Y8250000D03*
X-5800000Y7750000D03*
X-5800000Y7250000D03*
X-5800000Y6750000D03*
X-5800000Y6250000D03*
X-5800000Y5750000D03*
X-5800000Y5250000D03*
X-5800000Y4750000D03*
X-5800000Y4250000D03*
X-5800000Y3750000D03*
X-5800000Y3250000D03*
X-5800000Y2750000D03*
X-5800000Y2250000D03*
X-5800000Y1750000D03*
X-5800000Y1250000D03*
D15*
X-3750000Y-800000D03*
X-3250000Y-800000D03*
X-2750000Y-800000D03*
X-2250000Y-800000D03*
X-1750000Y-800000D03*
X-1250000Y-800000D03*
X-750000Y-800000D03*
X-250000Y-800000D03*
X250000Y-800000D03*
X750000Y-800000D03*
X1250000Y-800000D03*
X1750000Y-800000D03*
X2250000Y-800000D03*
X2750000Y-800000D03*
X3250000Y-800000D03*
X3750000Y-800000D03*
D16*
X5800000Y1250000D03*
X5800000Y1750000D03*
X5800000Y2250000D03*
X5800000Y2750000D03*
X5800000Y3250000D03*
X5800000Y3750000D03*
X5800000Y4250000D03*
X5800000Y4750000D03*
X5800000Y5250000D03*
X5800000Y5750000D03*
X5800000Y6250000D03*
X5800000Y6750000D03*
X5800000Y7250000D03*
X5800000Y7750000D03*
X5800000Y8250000D03*
X5800000Y8750000D03*
D17*
X-2200000Y-11000000D03*
X2200000Y-11000000D03*
X-2200000Y-6000000D03*
X2200000Y-6000000D03*
G04 #@! TA.AperFunction,SMDPad,CuDef*
G36*
G01*
X10360000Y6810000D02*
X10360000Y7210000D01*
G75*
G02*
X10560000Y7410000I200000J0D01*
G01*
X11060000Y7410000D01*
G75*
G02*
X11260000Y7210000I0J-200000D01*
G01*
X11260000Y6810000D01*
G75*
G02*
X11060000Y6610000I-200000J0D01*
G01*
X10560000Y6610000D01*
G75*
G02*
X10360000Y6810000I0J200000D01*
G01*
G37*
G04 #@! TD.AperFunction*
G04 #@! TA.AperFunction,SMDPad,CuDef*
G36*
G01*
X8660000Y6810000D02*
X8660000Y7210000D01*
G75*
G02*
X8860000Y7410000I200000J0D01*
G01*
X9360000Y7410000D01*
G75*
G02*
X9560000Y7210000I0J-200000D01*
G01*
X9560000Y6810000D01*
G75*
G02*
X9360000Y6610000I-200000J0D01*
G01*
X8860000Y6610000D01*
G75*
G02*
X8660000Y6810000I0J200000D01*
G01*
G37*
G04 #@! TD.AperFunction*
G04 #@! TA.AperFunction,SMDPad,CuDef*
G36*
G01*
X10360000Y2820000D02*
X10360000Y3220000D01*
G75*
G02*
X10560000Y3420000I200000J0D01*
G01*
X11060000Y3420000D01*
G75*
G02*
X11260000Y3220000I0J-200000D01*
G01*
X11260000Y2820000D01*
G75*
G02*
X11060000Y2620000I-200000J0D01*
G01*
X10560000Y2620000D01*
G75*
G02*
X10360000Y2820000I0J200000D01*
G01*
G37*
G04 #@! TD.AperFunction*
G04 #@! TA.AperFunction,SMDPad,CuDef*
G36*
G01*
X8660000Y2820000D02*
X8660000Y3220000D01*
G75*
G02*
X8860000Y3420000I200000J0D01*
G01*
X9360000Y3420000D01*
G75*
G02*
X9560000Y3220000I0J-200000D01*
G01*
X9560000Y2820000D01*
G75*
G02*
X9360000Y2620000I-200000J0D01*
G01*
X8860000Y2620000D01*
G75*
G02*
X8660000Y2820000I0J200000D01*
G01*
G37*
G04 #@! TD.AperFunction*
G04 #@! TA.AperFunction,SMDPad,CuDef*
G36*
G01*
X8900000Y16300000D02*
X8900000Y16700000D01*
G75*
G02*
X9100000Y16900000I200000J0D01*
G01*
X9600000Y16900000D01*
G75*
G02*
X9800000Y16700000I0J-200000D01*
G01*
X9800000Y16300000D01*
G75*
G02*
X9600000Y16100000I-200000J0D01*
G01*
X9100000Y16100000D01*
G75*
G02*
X8900000Y16300000I0J200000D01*
G01*
G37*
G04 #@! TD.AperFunction*
G04 #@! TA.AperFunction,SMDPad,CuDef*
G36*
G01*
X7200000Y16300000D02*
X7200000Y16700000D01*
G75*
G02*
X7400000Y16900000I200000J0D01*
G01*
X7900000Y16900000D01*
G75*
G02*
X8100000Y16700000I0J-200000D01*
G01*
X8100000Y16300000D01*
G75*
G02*
X7900000Y16100000I-200000J0D01*
G01*
X7400000Y16100000D01*
G75*
G02*
X7200000Y16300000I0J200000D01*
G01*
G37*
G04 #@! TD.AperFunction*
G04 #@! TA.AperFunction,SMDPad,CuDef*
G36*
G01*
X-7950000Y15950000D02*
X-9050000Y15950000D01*
G75*
G02*
X-9300000Y16200000I0J250000D01*
G01*
X-9300000Y19200000D01*
G75*
G02*
X-9050000Y19450000I250000J0D01*
G01*
X-7950000Y19450000D01*
G75*
G02*
X-7700000Y19200000I0J-250000D01*
G01*
X-7700000Y16200000D01*
G75*
G02*
X-7950000Y15950000I-250000J0D01*
G01*
G37*
G04 #@! TD.AperFunction*
G04 #@! TA.AperFunction,SMDPad,CuDef*
G36*
G01*
X-7950000Y10550000D02*
X-9050000Y10550000D01*
G75*
G02*
X-9300000Y10800000I0J250000D01*
G01*
X-9300000Y13800000D01*
G75*
G02*
X-9050000Y14050000I250000J0D01*
G01*
X-7950000Y14050000D01*
G75*
G02*
X-7700000Y13800000I0J-250000D01*
G01*
X-7700000Y10800000D01*
G75*
G02*
X-7950000Y10550000I-250000J0D01*
G01*
G37*
G04 #@! TD.AperFunction*
D18*
X4497000Y-196100D03*
X-10150000Y5050000D03*
X-850000Y-11050000D03*
X0Y6100000D03*
X-4300000Y3000000D03*
X800000Y2900000D03*
X-3859600Y9500000D03*
X5948300Y637800D03*
X-8257900Y9063400D03*
X-4000000Y3900000D03*
X-4300000Y5800000D03*
X4000000Y3200000D03*
X-8700000Y15200000D03*
X3435200Y7486700D03*
X928300Y8741200D03*
X-689147Y12898747D03*
X2017500Y9582100D03*
X6000000Y9790400D03*
X-2000000Y2900000D03*
X-1750000Y9439300D03*
X10700000Y16500000D03*
X9500000Y1362000D03*
X11200000Y4700000D03*
X-300000Y17300000D03*
X-5000000Y11600000D03*
X7900000Y-12600000D03*
X730600Y-6373500D03*
X3142700Y-9039000D03*
X8887200Y9067100D03*
X9405900Y12205500D03*
X7250100Y5912800D03*
X7338700Y7298900D03*
X8092200Y8582800D03*
X1042200Y9587100D03*
X-2627000Y9588600D03*
D19*
X-1300000Y15225000D02*
X-1300000Y18100000D01*
X6555300Y16844700D02*
X6900000Y16500000D01*
X6900000Y16500000D02*
X7650000Y16500000D01*
X3249800Y16844700D02*
X6555300Y16844700D01*
X3100000Y15550000D02*
X3100000Y14444900D01*
X1750000Y11805100D02*
X2620500Y12675600D01*
X3100000Y13155100D02*
X3100000Y14444900D01*
X2620500Y12675600D02*
X3100000Y13155100D01*
X3250000Y18100000D02*
X3250000Y17472500D01*
X3250000Y17472500D02*
X2872300Y17850200D01*
X-3852500Y18100000D02*
X-3250000Y18100000D01*
D20*
X-2750000Y-800000D02*
X-2750000Y-2050000D01*
X3250000Y-800000D02*
X3250000Y-2050000D01*
D21*
X-2200000Y-11000000D02*
X-2200000Y-6000000D01*
D20*
X1750000Y10800000D02*
X1750000Y11805100D01*
X3750000Y10800000D02*
X3750000Y11850000D01*
D19*
X3750000Y12505100D02*
X3100000Y13155100D01*
X3750000Y11850000D02*
X3750000Y12505100D01*
D20*
X-750000Y10800000D02*
X-750000Y11950000D01*
X-1250000Y10800000D02*
X-1250000Y11950000D01*
X-2250000Y10800000D02*
X-2250000Y11950000D01*
X-3250000Y10800000D02*
X-3250000Y9794900D01*
D19*
X-1350000Y11950000D02*
X-750000Y11950000D01*
X-1300000Y12000000D02*
X-1350000Y11950000D01*
X-2250000Y11950000D02*
X-1350000Y11950000D01*
D20*
X-5800000Y4750000D02*
X-4471600Y4750000D01*
D21*
X8890000Y-1270000D02*
X8890000Y-110000D01*
X8890000Y-110000D02*
X9600000Y600000D01*
X9600000Y600000D02*
X11600000Y600000D01*
X11600000Y600000D02*
X12000000Y1000000D01*
X12000000Y1000000D02*
X12000000Y17700000D01*
X11600000Y18100000D02*
X3250000Y18100000D01*
X12000000Y17700000D02*
X11600000Y18100000D01*
X-8500000Y17700000D02*
X-6200000Y17700000D01*
X-5800000Y18100000D02*
X-3250000Y18100000D01*
X-6200000Y17700000D02*
X-5800000Y18100000D01*
X-8890000Y-10000D02*
X-8890000Y-1270000D01*
X-9500000Y600000D02*
X-8890000Y-10000D01*
X-11300000Y600000D02*
X-9500000Y600000D01*
X-11500000Y17700000D02*
X-12000000Y17200000D01*
X-12000000Y1300000D02*
X-11300000Y600000D01*
X-8500000Y17700000D02*
X-11500000Y17700000D01*
X-3250000Y18100000D02*
X-3250000Y16850000D01*
X-3100000Y16700000D02*
X-3100000Y15550000D01*
X-3250000Y16850000D02*
X-3100000Y16700000D01*
X3250000Y18100000D02*
X3250000Y16850000D01*
X3100000Y16700000D02*
X3100000Y15550000D01*
X3250000Y16850000D02*
X3100000Y16700000D01*
X-10200000Y5100000D02*
X-10150000Y5050000D01*
X-12000000Y17200000D02*
X-12000000Y5100000D01*
X-12000000Y5100000D02*
X-10200000Y5100000D01*
X-12000000Y5100000D02*
X-12000000Y1300000D01*
X3250000Y-2050000D02*
X3250000Y-2250000D01*
X3250000Y-2250000D02*
X3700000Y-2700000D01*
X3700000Y-2700000D02*
X6000000Y-2700000D01*
X7430000Y-1270000D02*
X8890000Y-1270000D01*
X6000000Y-2700000D02*
X7430000Y-1270000D01*
D20*
X5800000Y2250000D02*
X7350000Y2250000D01*
D21*
X7350000Y-1190000D02*
X7430000Y-1270000D01*
X7350000Y2250000D02*
X7350000Y-1190000D01*
X-2750000Y-2050000D02*
X-2750000Y-3950000D01*
X-2200000Y-4500000D02*
X-2200000Y-6000000D01*
X-2750000Y-3950000D02*
X-2200000Y-4500000D01*
X-900000Y-11000000D02*
X-850000Y-11050000D01*
X-2200000Y-11000000D02*
X-900000Y-11000000D01*
D19*
X-1300000Y15225000D02*
X-1300000Y14000000D01*
X-2250000Y13050000D02*
X-2250000Y11950000D01*
X-1300000Y14000000D02*
X-2250000Y13050000D01*
X-3550000Y4750000D02*
X-4471600Y4750000D01*
X-3250000Y5050000D02*
X-3550000Y4750000D01*
X-3250000Y9794900D02*
X-3250000Y5050000D01*
X-4609601Y3309601D02*
X-4300000Y3000000D01*
X-4609601Y4611999D02*
X-4609601Y3309601D01*
X-4471600Y4750000D02*
X-4609601Y4611999D01*
X1182700Y637800D02*
X1182700Y2517300D01*
X1182700Y2517300D02*
X800000Y2900000D01*
X1182700Y637800D02*
X5948300Y637800D01*
X-6760600Y10560700D02*
X-8257900Y9063400D01*
X-8500000Y12300000D02*
X-6760600Y10560700D01*
D20*
X750000Y-800000D02*
X750000Y550000D01*
D19*
X837800Y637800D02*
X750000Y550000D01*
X1182700Y637800D02*
X837800Y637800D01*
D20*
X-5800000Y7250000D02*
X-4675800Y7250000D01*
X-5800000Y1750000D02*
X-4550000Y1750000D01*
D19*
X190399Y3509601D02*
X-2590399Y3509601D01*
X800000Y2900000D02*
X190399Y3509601D01*
X-4350000Y1750000D02*
X-4550000Y1750000D01*
X-2590399Y3509601D02*
X-4350000Y1750000D01*
X-3609601Y3509601D02*
X-4000000Y3900000D01*
X-2590399Y3509601D02*
X-3609601Y3509601D01*
X-4300000Y5800000D02*
X-4300000Y6900000D01*
X-4650000Y7250000D02*
X-4675800Y7250000D01*
X-4300000Y6900000D02*
X-4650000Y7250000D01*
D20*
X5800000Y1750000D02*
X4794900Y1750000D01*
X5800000Y4750000D02*
X4794900Y4750000D01*
D19*
X4000000Y3200000D02*
X4789800Y3200000D01*
X4789800Y3200000D02*
X4794900Y3194900D01*
X4794900Y3194900D02*
X4794900Y1750000D01*
X4794900Y4750000D02*
X4794900Y3194900D01*
X-4650000Y7250000D02*
X-4300000Y7600000D01*
X-4300000Y7600000D02*
X-4300000Y9500000D01*
X-5360700Y10560700D02*
X-6760600Y10560700D01*
X-4300000Y9500000D02*
X-5360700Y10560700D01*
X-3859600Y9500000D02*
X-4300000Y9500000D01*
D21*
X-8500000Y15000000D02*
X-8700000Y15200000D01*
X-8500000Y12300000D02*
X-8500000Y15000000D01*
D19*
X3435200Y7486700D02*
X3435200Y9609700D01*
D20*
X3250000Y9794900D02*
X3435200Y9609700D01*
X3250000Y10800000D02*
X3250000Y9794900D01*
D19*
X2064500Y8741200D02*
X2750000Y9426700D01*
X928300Y8741200D02*
X2064500Y8741200D01*
D20*
X2750000Y10800000D02*
X2750000Y9426700D01*
X-250000Y10800000D02*
X-250000Y11950000D01*
D19*
X-250000Y12491550D02*
X-657197Y12898747D01*
X-657197Y12898747D02*
X-689147Y12898747D01*
X-250000Y11950000D02*
X-250000Y12491550D01*
X2230300Y9794900D02*
X2017500Y9582100D01*
D20*
X2250000Y9814600D02*
X2230300Y9794900D01*
X2250000Y10800000D02*
X2250000Y9814600D01*
D19*
X4384800Y8784800D02*
X4384800Y9584800D01*
X4419600Y8750000D02*
X4384800Y8784800D01*
X4384800Y9584800D02*
X4590400Y9790400D01*
X4590400Y9790400D02*
X6000000Y9790400D01*
X-1750000Y2650000D02*
X-2000000Y2900000D01*
X4384800Y1557500D02*
X4692300Y1250000D01*
D20*
X-1750000Y10800000D02*
X-1750000Y9439300D01*
X-1750000Y-800000D02*
X-1750000Y450000D01*
D19*
X-1750000Y2650000D02*
X-1750000Y450000D01*
D20*
X5800000Y1250000D02*
X4692300Y1250000D01*
X5800000Y8750000D02*
X4419600Y8750000D01*
D19*
X846500Y6853500D02*
X835800Y6853500D01*
X835800Y6853500D02*
X-1750000Y9439300D01*
X1400000Y6300000D02*
X846500Y6853500D01*
X1400000Y4542300D02*
X4384800Y1557500D01*
X1400000Y6300000D02*
X1400000Y4542300D01*
X4419600Y7568890D02*
X4419600Y8750000D01*
X3150710Y6300000D02*
X4419600Y7568890D01*
X1400000Y6300000D02*
X3150710Y6300000D01*
X8890000Y-6350000D02*
X7340000Y-7900000D01*
X7340000Y-7900000D02*
X2800000Y-7900000D01*
X2200000Y-7300000D02*
X2200000Y-6000000D01*
X2800000Y-7900000D02*
X2200000Y-7300000D01*
X8890000Y-8890000D02*
X5010000Y-8890000D01*
X2900000Y-11000000D02*
X2200000Y-11000000D01*
X5010000Y-8890000D02*
X2900000Y-11000000D01*
X9350000Y16500000D02*
X10700000Y16500000D01*
X9500000Y1362000D02*
X10562000Y1362000D01*
X10810000Y1610000D02*
X10810000Y3020000D01*
X10562000Y1362000D02*
X10810000Y1610000D01*
X9110000Y3020000D02*
X8380000Y3750000D01*
D20*
X5800000Y3750000D02*
X6850000Y3750000D01*
D19*
X8380000Y3750000D02*
X6850000Y3750000D01*
X10810000Y7010000D02*
X10810000Y5090000D01*
X10810000Y5090000D02*
X11200000Y4700000D01*
X9110000Y6554900D02*
X9110000Y7010000D01*
X6805100Y4250000D02*
X9110000Y6554900D01*
D20*
X5800000Y4250000D02*
X6805100Y4250000D01*
D19*
X0Y12816300D02*
X0Y15225000D01*
X250000Y12566300D02*
X0Y12816300D01*
D20*
X250000Y10800000D02*
X250000Y11950000D01*
D19*
X250000Y12566300D02*
X250000Y11950000D01*
X750000Y13944900D02*
X650000Y14044900D01*
X650000Y15225000D02*
X650000Y14044900D01*
D20*
X750000Y10800000D02*
X750000Y11950000D01*
D19*
X750000Y13944900D02*
X750000Y11950000D01*
D21*
X900000Y17300000D02*
X1300000Y16900000D01*
X-300000Y17300000D02*
X900000Y17300000D01*
D19*
X1300000Y15225000D02*
X1300000Y16100000D01*
D21*
X1300000Y16900000D02*
X1300000Y16100000D01*
D19*
X-4794900Y8954200D02*
X-4794900Y7750000D01*
X-5035500Y9194800D02*
X-4794900Y8954200D01*
X-7010900Y9194800D02*
X-5035500Y9194800D01*
X-8117200Y8088500D02*
X-7010900Y9194800D01*
X-8117200Y246600D02*
X-8117200Y8088500D01*
X-7877000Y6400D02*
X-8117200Y246600D01*
X-7877000Y-5337000D02*
X-7877000Y6400D01*
X-8890000Y-6350000D02*
X-7877000Y-5337000D01*
D20*
X-5800000Y7750000D02*
X-4794900Y7750000D01*
D19*
X-7425400Y-7425400D02*
X-8890000Y-8890000D01*
X-7425400Y606600D02*
X-7425400Y-7425400D01*
X-7654200Y835400D02*
X-7425400Y606600D01*
X-7654200Y7976200D02*
X-7654200Y835400D01*
X-6880400Y8750000D02*
X-7654200Y7976200D01*
D20*
X-5800000Y8750000D02*
X-6880400Y8750000D01*
X-3750000Y10800000D02*
X-3750000Y11950000D01*
D19*
X-3900000Y12100000D02*
X-3750000Y11950000D01*
X-4500000Y12100000D02*
X-3900000Y12100000D01*
X-5000000Y11600000D02*
X-4500000Y12100000D01*
X-7247400Y7807700D02*
X-6805100Y8250000D01*
X-7247400Y1073300D02*
X-7247400Y7807700D01*
X-7018600Y844500D02*
X-7247400Y1073300D01*
X-7018600Y-12098600D02*
X-7018600Y844500D01*
X-8890000Y-13970000D02*
X-7018600Y-12098600D01*
D20*
X-5800000Y8250000D02*
X-6805100Y8250000D01*
X-750000Y-800000D02*
X-750000Y-2081010D01*
D19*
X-750000Y-5350000D02*
X-750000Y-2081010D01*
X-750000Y-7250000D02*
X-750000Y-5350000D01*
X1086211Y-9086211D02*
X-750000Y-7250000D01*
X2000000Y-12600000D02*
X1086211Y-11686211D01*
X1086211Y-11686211D02*
X1086211Y-9086211D01*
X7900000Y-12600000D02*
X2000000Y-12600000D01*
X8890000Y-12512210D02*
X8192609Y-13209601D01*
X8890000Y-11430000D02*
X8890000Y-12512210D01*
D20*
X-1250000Y-800000D02*
X-1250000Y-2050000D01*
D19*
X-1250000Y-7407700D02*
X-1250000Y-2050000D01*
X679801Y-9337501D02*
X679801Y-12279801D01*
X-1250000Y-7407700D02*
X679801Y-9337501D01*
X1609601Y-13209601D02*
X8192609Y-13209601D01*
X679801Y-12279801D02*
X1609601Y-13209601D01*
X730600Y-3973300D02*
X730600Y-6373500D01*
X-250000Y-2992700D02*
X730600Y-3973300D01*
D20*
X-250000Y-800000D02*
X-250000Y-2050000D01*
D19*
X-250000Y-2050000D02*
X-250000Y-2992700D01*
X1369800Y-7266100D02*
X3142700Y-9039000D01*
D20*
X1250000Y-800000D02*
X1250000Y-2050000D01*
D19*
X1369800Y-3869800D02*
X1369800Y-7266100D01*
X1250000Y-3750000D02*
X1369800Y-3869800D01*
X1250000Y-2050000D02*
X1250000Y-3750000D01*
X7747800Y9192700D02*
X6805100Y8250000D01*
X8761600Y9192700D02*
X7747800Y9192700D01*
X8887200Y9067100D02*
X8761600Y9192700D01*
D20*
X5800000Y8250000D02*
X6805100Y8250000D01*
D19*
X8026200Y6688900D02*
X7250100Y5912800D01*
X8026200Y7184700D02*
X8026200Y6688900D01*
X9555100Y8713600D02*
X8026200Y7184700D01*
X9555100Y12056300D02*
X9555100Y8713600D01*
X9405900Y12205500D02*
X9555100Y12056300D01*
D20*
X7289800Y7250000D02*
X7338700Y7298900D01*
X5800000Y7250000D02*
X7289800Y7250000D01*
D19*
X7744100Y8582800D02*
X6911300Y7750000D01*
X8092200Y8582800D02*
X7744100Y8582800D01*
D20*
X5800000Y7750000D02*
X6911300Y7750000D01*
X1250000Y9794900D02*
X1042200Y9587100D01*
X1250000Y10800000D02*
X1250000Y9794900D01*
X-2750000Y9711600D02*
X-2627000Y9588600D01*
X-2750000Y10800000D02*
X-2750000Y9711600D01*
D22*
X-2729990Y2300913D02*
X-2599087Y2170010D01*
X-2486600Y2094848D01*
X-2486599Y514553D01*
X-2498477Y510949D01*
X-2524890Y520164D01*
X-2591250Y535000D01*
X-2750000Y376250D01*
X-2908750Y535000D01*
X-2975110Y520164D01*
X-3001523Y510949D01*
X-3050518Y525812D01*
X-3175000Y538072D01*
X-3325000Y538072D01*
X-3449482Y525812D01*
X-3500000Y510488D01*
X-3550518Y525812D01*
X-3675000Y538072D01*
X-3825000Y538072D01*
X-3949482Y525812D01*
X-4069180Y489502D01*
X-4179494Y430537D01*
X-4276185Y351185D01*
X-4355537Y254494D01*
X-4414502Y144180D01*
X-4450812Y24482D01*
X-4463072Y-100000D01*
X-4463072Y-1500000D01*
X-4450812Y-1624482D01*
X-4414502Y-1744180D01*
X-4355537Y-1854494D01*
X-4276185Y-1951185D01*
X-4179494Y-2030537D01*
X-4069180Y-2089502D01*
X-3949482Y-2125812D01*
X-3825000Y-2138072D01*
X-3675000Y-2138072D01*
X-3550518Y-2125812D01*
X-3500000Y-2110488D01*
X-3449482Y-2125812D01*
X-3325000Y-2138072D01*
X-3175000Y-2138072D01*
X-3050518Y-2125812D01*
X-3001523Y-2110949D01*
X-2975110Y-2120164D01*
X-2908750Y-2135000D01*
X-2750000Y-1976250D01*
X-2591250Y-2135000D01*
X-2524890Y-2120164D01*
X-2498477Y-2110949D01*
X-2449482Y-2125812D01*
X-2325000Y-2138072D01*
X-2175000Y-2138072D01*
X-2050518Y-2125812D01*
X-2000000Y-2110488D01*
X-1986599Y-2114553D01*
X-1986599Y-4637349D01*
X-2073000Y-4723750D01*
X-2073000Y-5873000D01*
X-2053000Y-5873000D01*
X-2053000Y-6127000D01*
X-2073000Y-6127000D01*
X-2073000Y-7276250D01*
X-1986600Y-7362650D01*
X-1986600Y-7371517D01*
X-1990164Y-7407700D01*
X-1986600Y-7443883D01*
X-1986600Y-7443885D01*
X-1975942Y-7552098D01*
X-1933822Y-7690948D01*
X-1865424Y-7818912D01*
X-1773375Y-7931074D01*
X-1745268Y-7954141D01*
X-488033Y-9211377D01*
X-643837Y-9315482D01*
X-784518Y-9456163D01*
X-895050Y-9621586D01*
X-971186Y-9805394D01*
X-1010000Y-10000524D01*
X-1010000Y-10199476D01*
X-971186Y-10394606D01*
X-895050Y-10578414D01*
X-784518Y-10743837D01*
X-643837Y-10884518D01*
X-478414Y-10995050D01*
X-466464Y-11000000D01*
X-478414Y-11004950D01*
X-643837Y-11115482D01*
X-784518Y-11256163D01*
X-895050Y-11421586D01*
X-971186Y-11605394D01*
X-1010000Y-11800524D01*
X-1010000Y-11999476D01*
X-971186Y-12194606D01*
X-895050Y-12378414D01*
X-784518Y-12543837D01*
X-643837Y-12684518D01*
X-478414Y-12795050D01*
X-294606Y-12871186D01*
X-99476Y-12910000D01*
X99476Y-12910000D01*
X240283Y-12881992D01*
X1063160Y-13704870D01*
X1086226Y-13732976D01*
X1198388Y-13825025D01*
X1326352Y-13893423D01*
X1465199Y-13935542D01*
X1465202Y-13935543D01*
X1609601Y-13949765D01*
X1645787Y-13946201D01*
X7555000Y-13946201D01*
X7555000Y-14101486D01*
X7606304Y-14359405D01*
X7706939Y-14602359D01*
X7853038Y-14821013D01*
X7872025Y-14840000D01*
X-7872025Y-14840000D01*
X-7853038Y-14821013D01*
X-7706939Y-14602359D01*
X-7606304Y-14359405D01*
X-7555000Y-14101486D01*
X-7555000Y-13838514D01*
X-7581845Y-13703555D01*
X-6523327Y-12645037D01*
X-6495226Y-12621975D01*
X-6472163Y-12593873D01*
X-6472158Y-12593868D01*
X-6403177Y-12509814D01*
X-6403175Y-12509812D01*
X-6334778Y-12381849D01*
X-6292658Y-12242999D01*
X-6282000Y-12134786D01*
X-6282000Y-12134777D01*
X-6278437Y-12098601D01*
X-6282000Y-12062425D01*
X-6282000Y-11800000D01*
X-3338072Y-11800000D01*
X-3325812Y-11924482D01*
X-3289502Y-12044180D01*
X-3230537Y-12154494D01*
X-3151185Y-12251185D01*
X-3054494Y-12330537D01*
X-2944180Y-12389502D01*
X-2824482Y-12425812D01*
X-2700000Y-12438072D01*
X-2485750Y-12435000D01*
X-2327000Y-12276250D01*
X-2327000Y-11127000D01*
X-2073000Y-11127000D01*
X-2073000Y-12276250D01*
X-1914250Y-12435000D01*
X-1700000Y-12438072D01*
X-1575518Y-12425812D01*
X-1455820Y-12389502D01*
X-1345506Y-12330537D01*
X-1248815Y-12251185D01*
X-1169463Y-12154494D01*
X-1110498Y-12044180D01*
X-1074188Y-11924482D01*
X-1061928Y-11800000D01*
X-1065000Y-11285750D01*
X-1223750Y-11127000D01*
X-2073000Y-11127000D01*
X-2327000Y-11127000D01*
X-3176250Y-11127000D01*
X-3335000Y-11285750D01*
X-3338072Y-11800000D01*
X-6282000Y-11800000D01*
X-6282000Y-10200000D01*
X-3338072Y-10200000D01*
X-3335000Y-10714250D01*
X-3176250Y-10873000D01*
X-2327000Y-10873000D01*
X-2327000Y-9723750D01*
X-2073000Y-9723750D01*
X-2073000Y-10873000D01*
X-1223750Y-10873000D01*
X-1065000Y-10714250D01*
X-1061928Y-10200000D01*
X-1074188Y-10075518D01*
X-1110498Y-9955820D01*
X-1169463Y-9845506D01*
X-1248815Y-9748815D01*
X-1345506Y-9669463D01*
X-1455820Y-9610498D01*
X-1575518Y-9574188D01*
X-1700000Y-9561928D01*
X-1914250Y-9565000D01*
X-2073000Y-9723750D01*
X-2327000Y-9723750D01*
X-2485750Y-9565000D01*
X-2700000Y-9561928D01*
X-2824482Y-9574188D01*
X-2944180Y-9610498D01*
X-3054494Y-9669463D01*
X-3151185Y-9748815D01*
X-3230537Y-9845506D01*
X-3289502Y-9955820D01*
X-3325812Y-10075518D01*
X-3338072Y-10200000D01*
X-6282000Y-10200000D01*
X-6282000Y-6800000D01*
X-3338072Y-6800000D01*
X-3325812Y-6924482D01*
X-3289502Y-7044180D01*
X-3230537Y-7154494D01*
X-3151185Y-7251185D01*
X-3054494Y-7330537D01*
X-2944180Y-7389502D01*
X-2824482Y-7425812D01*
X-2700000Y-7438072D01*
X-2485750Y-7435000D01*
X-2327000Y-7276250D01*
X-2327000Y-6127000D01*
X-3176250Y-6127000D01*
X-3335000Y-6285750D01*
X-3338072Y-6800000D01*
X-6282000Y-6800000D01*
X-6282000Y-5200000D01*
X-3338072Y-5200000D01*
X-3335000Y-5714250D01*
X-3176250Y-5873000D01*
X-2327000Y-5873000D01*
X-2327000Y-4723750D01*
X-2485750Y-4565000D01*
X-2700000Y-4561928D01*
X-2824482Y-4574188D01*
X-2944180Y-4610498D01*
X-3054494Y-4669463D01*
X-3151185Y-4748815D01*
X-3230537Y-4845506D01*
X-3289502Y-4955820D01*
X-3325812Y-5075518D01*
X-3338072Y-5200000D01*
X-6282000Y-5200000D01*
X-6282000Y536928D01*
X-5100000Y536928D01*
X-4975518Y549188D01*
X-4855820Y585498D01*
X-4745506Y644463D01*
X-4648815Y723815D01*
X-4569463Y820506D01*
X-4510498Y930820D01*
X-4485448Y1013400D01*
X-4386183Y1013400D01*
X-4350000Y1009836D01*
X-4313817Y1013400D01*
X-4313814Y1013400D01*
X-4205601Y1024058D01*
X-4066751Y1066178D01*
X-3938787Y1134576D01*
X-3826625Y1226625D01*
X-3803555Y1254736D01*
X-2740960Y2317330D01*
X-2729990Y2300913D01*
G04 #@! TA.AperFunction,Conductor*
D23*
G36*
X-2729990Y2300913D02*
G01*
X-2599087Y2170010D01*
X-2486600Y2094848D01*
X-2486599Y514553D01*
X-2498477Y510949D01*
X-2524890Y520164D01*
X-2591250Y535000D01*
X-2750000Y376250D01*
X-2908750Y535000D01*
X-2975110Y520164D01*
X-3001523Y510949D01*
X-3050518Y525812D01*
X-3175000Y538072D01*
X-3325000Y538072D01*
X-3449482Y525812D01*
X-3500000Y510488D01*
X-3550518Y525812D01*
X-3675000Y538072D01*
X-3825000Y538072D01*
X-3949482Y525812D01*
X-4069180Y489502D01*
X-4179494Y430537D01*
X-4276185Y351185D01*
X-4355537Y254494D01*
X-4414502Y144180D01*
X-4450812Y24482D01*
X-4463072Y-100000D01*
X-4463072Y-1500000D01*
X-4450812Y-1624482D01*
X-4414502Y-1744180D01*
X-4355537Y-1854494D01*
X-4276185Y-1951185D01*
X-4179494Y-2030537D01*
X-4069180Y-2089502D01*
X-3949482Y-2125812D01*
X-3825000Y-2138072D01*
X-3675000Y-2138072D01*
X-3550518Y-2125812D01*
X-3500000Y-2110488D01*
X-3449482Y-2125812D01*
X-3325000Y-2138072D01*
X-3175000Y-2138072D01*
X-3050518Y-2125812D01*
X-3001523Y-2110949D01*
X-2975110Y-2120164D01*
X-2908750Y-2135000D01*
X-2750000Y-1976250D01*
X-2591250Y-2135000D01*
X-2524890Y-2120164D01*
X-2498477Y-2110949D01*
X-2449482Y-2125812D01*
X-2325000Y-2138072D01*
X-2175000Y-2138072D01*
X-2050518Y-2125812D01*
X-2000000Y-2110488D01*
X-1986599Y-2114553D01*
X-1986599Y-4637349D01*
X-2073000Y-4723750D01*
X-2073000Y-5873000D01*
X-2053000Y-5873000D01*
X-2053000Y-6127000D01*
X-2073000Y-6127000D01*
X-2073000Y-7276250D01*
X-1986600Y-7362650D01*
X-1986600Y-7371517D01*
X-1990164Y-7407700D01*
X-1986600Y-7443883D01*
X-1986600Y-7443885D01*
X-1975942Y-7552098D01*
X-1933822Y-7690948D01*
X-1865424Y-7818912D01*
X-1773375Y-7931074D01*
X-1745268Y-7954141D01*
X-488033Y-9211377D01*
X-643837Y-9315482D01*
X-784518Y-9456163D01*
X-895050Y-9621586D01*
X-971186Y-9805394D01*
X-1010000Y-10000524D01*
X-1010000Y-10199476D01*
X-971186Y-10394606D01*
X-895050Y-10578414D01*
X-784518Y-10743837D01*
X-643837Y-10884518D01*
X-478414Y-10995050D01*
X-466464Y-11000000D01*
X-478414Y-11004950D01*
X-643837Y-11115482D01*
X-784518Y-11256163D01*
X-895050Y-11421586D01*
X-971186Y-11605394D01*
X-1010000Y-11800524D01*
X-1010000Y-11999476D01*
X-971186Y-12194606D01*
X-895050Y-12378414D01*
X-784518Y-12543837D01*
X-643837Y-12684518D01*
X-478414Y-12795050D01*
X-294606Y-12871186D01*
X-99476Y-12910000D01*
X99476Y-12910000D01*
X240283Y-12881992D01*
X1063160Y-13704870D01*
X1086226Y-13732976D01*
X1198388Y-13825025D01*
X1326352Y-13893423D01*
X1465199Y-13935542D01*
X1465202Y-13935543D01*
X1609601Y-13949765D01*
X1645787Y-13946201D01*
X7555000Y-13946201D01*
X7555000Y-14101486D01*
X7606304Y-14359405D01*
X7706939Y-14602359D01*
X7853038Y-14821013D01*
X7872025Y-14840000D01*
X-7872025Y-14840000D01*
X-7853038Y-14821013D01*
X-7706939Y-14602359D01*
X-7606304Y-14359405D01*
X-7555000Y-14101486D01*
X-7555000Y-13838514D01*
X-7581845Y-13703555D01*
X-6523327Y-12645037D01*
X-6495226Y-12621975D01*
X-6472163Y-12593873D01*
X-6472158Y-12593868D01*
X-6403177Y-12509814D01*
X-6403175Y-12509812D01*
X-6334778Y-12381849D01*
X-6292658Y-12242999D01*
X-6282000Y-12134786D01*
X-6282000Y-12134777D01*
X-6278437Y-12098601D01*
X-6282000Y-12062425D01*
X-6282000Y-11800000D01*
X-3338072Y-11800000D01*
X-3325812Y-11924482D01*
X-3289502Y-12044180D01*
X-3230537Y-12154494D01*
X-3151185Y-12251185D01*
X-3054494Y-12330537D01*
X-2944180Y-12389502D01*
X-2824482Y-12425812D01*
X-2700000Y-12438072D01*
X-2485750Y-12435000D01*
X-2327000Y-12276250D01*
X-2327000Y-11127000D01*
X-2073000Y-11127000D01*
X-2073000Y-12276250D01*
X-1914250Y-12435000D01*
X-1700000Y-12438072D01*
X-1575518Y-12425812D01*
X-1455820Y-12389502D01*
X-1345506Y-12330537D01*
X-1248815Y-12251185D01*
X-1169463Y-12154494D01*
X-1110498Y-12044180D01*
X-1074188Y-11924482D01*
X-1061928Y-11800000D01*
X-1065000Y-11285750D01*
X-1223750Y-11127000D01*
X-2073000Y-11127000D01*
X-2327000Y-11127000D01*
X-3176250Y-11127000D01*
X-3335000Y-11285750D01*
X-3338072Y-11800000D01*
X-6282000Y-11800000D01*
X-6282000Y-10200000D01*
X-3338072Y-10200000D01*
X-3335000Y-10714250D01*
X-3176250Y-10873000D01*
X-2327000Y-10873000D01*
X-2327000Y-9723750D01*
X-2073000Y-9723750D01*
X-2073000Y-10873000D01*
X-1223750Y-10873000D01*
X-1065000Y-10714250D01*
X-1061928Y-10200000D01*
X-1074188Y-10075518D01*
X-1110498Y-9955820D01*
X-1169463Y-9845506D01*
X-1248815Y-9748815D01*
X-1345506Y-9669463D01*
X-1455820Y-9610498D01*
X-1575518Y-9574188D01*
X-1700000Y-9561928D01*
X-1914250Y-9565000D01*
X-2073000Y-9723750D01*
X-2327000Y-9723750D01*
X-2485750Y-9565000D01*
X-2700000Y-9561928D01*
X-2824482Y-9574188D01*
X-2944180Y-9610498D01*
X-3054494Y-9669463D01*
X-3151185Y-9748815D01*
X-3230537Y-9845506D01*
X-3289502Y-9955820D01*
X-3325812Y-10075518D01*
X-3338072Y-10200000D01*
X-6282000Y-10200000D01*
X-6282000Y-6800000D01*
X-3338072Y-6800000D01*
X-3325812Y-6924482D01*
X-3289502Y-7044180D01*
X-3230537Y-7154494D01*
X-3151185Y-7251185D01*
X-3054494Y-7330537D01*
X-2944180Y-7389502D01*
X-2824482Y-7425812D01*
X-2700000Y-7438072D01*
X-2485750Y-7435000D01*
X-2327000Y-7276250D01*
X-2327000Y-6127000D01*
X-3176250Y-6127000D01*
X-3335000Y-6285750D01*
X-3338072Y-6800000D01*
X-6282000Y-6800000D01*
X-6282000Y-5200000D01*
X-3338072Y-5200000D01*
X-3335000Y-5714250D01*
X-3176250Y-5873000D01*
X-2327000Y-5873000D01*
X-2327000Y-4723750D01*
X-2485750Y-4565000D01*
X-2700000Y-4561928D01*
X-2824482Y-4574188D01*
X-2944180Y-4610498D01*
X-3054494Y-4669463D01*
X-3151185Y-4748815D01*
X-3230537Y-4845506D01*
X-3289502Y-4955820D01*
X-3325812Y-5075518D01*
X-3338072Y-5200000D01*
X-6282000Y-5200000D01*
X-6282000Y536928D01*
X-5100000Y536928D01*
X-4975518Y549188D01*
X-4855820Y585498D01*
X-4745506Y644463D01*
X-4648815Y723815D01*
X-4569463Y820506D01*
X-4510498Y930820D01*
X-4485448Y1013400D01*
X-4386183Y1013400D01*
X-4350000Y1009836D01*
X-4313817Y1013400D01*
X-4313814Y1013400D01*
X-4205601Y1024058D01*
X-4066751Y1066178D01*
X-3938787Y1134576D01*
X-3826625Y1226625D01*
X-3803555Y1254736D01*
X-2740960Y2317330D01*
X-2729990Y2300913D01*
G37*
G04 #@! TD.AperFunction*
D22*
X11940001Y1032289D02*
X11930420Y934576D01*
X11911420Y871643D01*
X11880554Y813594D01*
X11839011Y762657D01*
X11788356Y720752D01*
X11730529Y689485D01*
X11667728Y670044D01*
X11572165Y660000D01*
X10967581Y660000D01*
X10939326Y657217D01*
X10933199Y657260D01*
X10924028Y656360D01*
X10729931Y635959D01*
X10671348Y623934D01*
X10612577Y612723D01*
X10603755Y610059D01*
X10417317Y552347D01*
X10362162Y529162D01*
X10306709Y506758D01*
X10298573Y502432D01*
X10126896Y409607D01*
X10077278Y376139D01*
X10027247Y343400D01*
X10020106Y337576D01*
X9869728Y213172D01*
X9827589Y170737D01*
X9784839Y128874D01*
X9778966Y121773D01*
X9723050Y53213D01*
X9714482Y55812D01*
X9590000Y68072D01*
X9175750Y65000D01*
X9017000Y-93750D01*
X9017000Y-1143000D01*
X9037000Y-1143000D01*
X9037000Y-1397000D01*
X9017000Y-1397000D01*
X9017000Y-1417000D01*
X8763000Y-1417000D01*
X8763000Y-1397000D01*
X7713750Y-1397000D01*
X7555000Y-1555750D01*
X7551928Y-1970000D01*
X7564188Y-2094482D01*
X7600498Y-2214180D01*
X7659463Y-2324494D01*
X7738815Y-2421185D01*
X7835506Y-2500537D01*
X7945820Y-2559502D01*
X8065518Y-2595812D01*
X8190000Y-2608072D01*
X8305253Y-2607217D01*
X8257641Y-2626939D01*
X8038987Y-2773038D01*
X7853038Y-2958987D01*
X7706939Y-3177641D01*
X7606304Y-3420595D01*
X7555000Y-3678514D01*
X7555000Y-3941486D01*
X7606304Y-4199405D01*
X7706939Y-4442359D01*
X7853038Y-4661013D01*
X8038987Y-4846962D01*
X8257641Y-4993061D01*
X8467530Y-5080000D01*
X8257641Y-5166939D01*
X8038987Y-5313038D01*
X7853038Y-5498987D01*
X7706939Y-5717641D01*
X7606304Y-5960595D01*
X7555000Y-6218514D01*
X7555000Y-6481486D01*
X7581845Y-6616445D01*
X7034891Y-7163400D01*
X3223228Y-7163400D01*
X3230537Y-7154494D01*
X3289502Y-7044180D01*
X3325812Y-6924482D01*
X3338072Y-6800000D01*
X3338072Y-5200000D01*
X3325812Y-5075518D01*
X3289502Y-4955820D01*
X3230537Y-4845506D01*
X3151185Y-4748815D01*
X3054494Y-4669463D01*
X2944180Y-4610498D01*
X2824482Y-4574188D01*
X2700000Y-4561928D01*
X2106400Y-4561928D01*
X2106400Y-3905986D01*
X2109964Y-3869800D01*
X2095742Y-3725402D01*
X2095742Y-3725401D01*
X2053622Y-3586551D01*
X1986600Y-3461161D01*
X1986600Y-2114552D01*
X2000000Y-2110488D01*
X2050518Y-2125812D01*
X2175000Y-2138072D01*
X2325000Y-2138072D01*
X2449482Y-2125812D01*
X2500000Y-2110488D01*
X2550518Y-2125812D01*
X2675000Y-2138072D01*
X2825000Y-2138072D01*
X2949482Y-2125812D01*
X2998477Y-2110949D01*
X3024890Y-2120164D01*
X3091250Y-2135000D01*
X3250000Y-1976250D01*
X3408750Y-2135000D01*
X3475110Y-2120164D01*
X3501523Y-2110949D01*
X3550518Y-2125812D01*
X3675000Y-2138072D01*
X3825000Y-2138072D01*
X3949482Y-2125812D01*
X4069180Y-2089502D01*
X4179494Y-2030537D01*
X4276185Y-1951185D01*
X4355537Y-1854494D01*
X4414502Y-1744180D01*
X4450812Y-1624482D01*
X4463072Y-1500000D01*
X4463072Y-570000D01*
X7551928Y-570000D01*
X7555000Y-984250D01*
X7713750Y-1143000D01*
X8763000Y-1143000D01*
X8763000Y-93750D01*
X8604250Y65000D01*
X8190000Y68072D01*
X8065518Y55812D01*
X7945820Y19502D01*
X7835506Y-39463D01*
X7738815Y-118815D01*
X7659463Y-215506D01*
X7600498Y-325820D01*
X7564188Y-445518D01*
X7551928Y-570000D01*
X4463072Y-570000D01*
X4463072Y-100000D01*
X4462954Y-98800D01*
X5359106Y-98800D01*
X5503138Y-195040D01*
X5674171Y-265884D01*
X5855738Y-302000D01*
X6040862Y-302000D01*
X6222429Y-265884D01*
X6393462Y-195040D01*
X6547387Y-92190D01*
X6678290Y38713D01*
X6781140Y192638D01*
X6851984Y363671D01*
X6888100Y545238D01*
X6888100Y672043D01*
X6951185Y723815D01*
X7030537Y820506D01*
X7089502Y930820D01*
X7125812Y1050518D01*
X7138072Y1175000D01*
X7138072Y1325000D01*
X7125812Y1449482D01*
X7110488Y1500000D01*
X7125812Y1550518D01*
X7138072Y1675000D01*
X7138072Y1825000D01*
X7125812Y1949482D01*
X7110949Y1998477D01*
X7120164Y2024890D01*
X7135000Y2091250D01*
X6976250Y2250000D01*
X7135000Y2408750D01*
X7120164Y2475110D01*
X7110949Y2501523D01*
X7125812Y2550518D01*
X7138072Y2675000D01*
X7138072Y2825000D01*
X7125812Y2949482D01*
X7110488Y3000000D01*
X7114552Y3013400D01*
X8021928Y3013400D01*
X8021928Y2820000D01*
X8038031Y2656500D01*
X8085722Y2499284D01*
X8163169Y2354392D01*
X8267394Y2227394D01*
X8394392Y2123169D01*
X8539284Y2045722D01*
X8696500Y1998031D01*
X8797051Y1988128D01*
X8770010Y1961087D01*
X8667160Y1807162D01*
X8596316Y1636129D01*
X8560200Y1454562D01*
X8560200Y1269438D01*
X8596316Y1087871D01*
X8667160Y916838D01*
X8770010Y762913D01*
X8900913Y632010D01*
X9054838Y529160D01*
X9225871Y458316D01*
X9407438Y422200D01*
X9592562Y422200D01*
X9774129Y458316D01*
X9945162Y529160D01*
X10089194Y625400D01*
X10525817Y625400D01*
X10562000Y621836D01*
X10598183Y625400D01*
X10598186Y625400D01*
X10706399Y636058D01*
X10845249Y678178D01*
X10973213Y746576D01*
X11085375Y838625D01*
X11108446Y866737D01*
X11305268Y1063559D01*
X11333374Y1086625D01*
X11425424Y1198787D01*
X11493822Y1326751D01*
X11535942Y1465601D01*
X11546600Y1573814D01*
X11546600Y1573815D01*
X11550164Y1610000D01*
X11546600Y1646186D01*
X11546600Y2140397D01*
X11652606Y2227394D01*
X11756831Y2354392D01*
X11834278Y2499284D01*
X11881969Y2656500D01*
X11898072Y2820000D01*
X11898072Y3220000D01*
X11881969Y3383500D01*
X11834278Y3540716D01*
X11756831Y3685608D01*
X11652606Y3812606D01*
X11605932Y3850910D01*
X11645162Y3867160D01*
X11799087Y3970010D01*
X11929990Y4100913D01*
X11940001Y4115895D01*
X11940001Y1032289D01*
G04 #@! TA.AperFunction,Conductor*
D23*
G36*
X11940001Y1032289D02*
G01*
X11930420Y934576D01*
X11911420Y871643D01*
X11880554Y813594D01*
X11839011Y762657D01*
X11788356Y720752D01*
X11730529Y689485D01*
X11667728Y670044D01*
X11572165Y660000D01*
X10967581Y660000D01*
X10939326Y657217D01*
X10933199Y657260D01*
X10924028Y656360D01*
X10729931Y635959D01*
X10671348Y623934D01*
X10612577Y612723D01*
X10603755Y610059D01*
X10417317Y552347D01*
X10362162Y529162D01*
X10306709Y506758D01*
X10298573Y502432D01*
X10126896Y409607D01*
X10077278Y376139D01*
X10027247Y343400D01*
X10020106Y337576D01*
X9869728Y213172D01*
X9827589Y170737D01*
X9784839Y128874D01*
X9778966Y121773D01*
X9723050Y53213D01*
X9714482Y55812D01*
X9590000Y68072D01*
X9175750Y65000D01*
X9017000Y-93750D01*
X9017000Y-1143000D01*
X9037000Y-1143000D01*
X9037000Y-1397000D01*
X9017000Y-1397000D01*
X9017000Y-1417000D01*
X8763000Y-1417000D01*
X8763000Y-1397000D01*
X7713750Y-1397000D01*
X7555000Y-1555750D01*
X7551928Y-1970000D01*
X7564188Y-2094482D01*
X7600498Y-2214180D01*
X7659463Y-2324494D01*
X7738815Y-2421185D01*
X7835506Y-2500537D01*
X7945820Y-2559502D01*
X8065518Y-2595812D01*
X8190000Y-2608072D01*
X8305253Y-2607217D01*
X8257641Y-2626939D01*
X8038987Y-2773038D01*
X7853038Y-2958987D01*
X7706939Y-3177641D01*
X7606304Y-3420595D01*
X7555000Y-3678514D01*
X7555000Y-3941486D01*
X7606304Y-4199405D01*
X7706939Y-4442359D01*
X7853038Y-4661013D01*
X8038987Y-4846962D01*
X8257641Y-4993061D01*
X8467530Y-5080000D01*
X8257641Y-5166939D01*
X8038987Y-5313038D01*
X7853038Y-5498987D01*
X7706939Y-5717641D01*
X7606304Y-5960595D01*
X7555000Y-6218514D01*
X7555000Y-6481486D01*
X7581845Y-6616445D01*
X7034891Y-7163400D01*
X3223228Y-7163400D01*
X3230537Y-7154494D01*
X3289502Y-7044180D01*
X3325812Y-6924482D01*
X3338072Y-6800000D01*
X3338072Y-5200000D01*
X3325812Y-5075518D01*
X3289502Y-4955820D01*
X3230537Y-4845506D01*
X3151185Y-4748815D01*
X3054494Y-4669463D01*
X2944180Y-4610498D01*
X2824482Y-4574188D01*
X2700000Y-4561928D01*
X2106400Y-4561928D01*
X2106400Y-3905986D01*
X2109964Y-3869800D01*
X2095742Y-3725402D01*
X2095742Y-3725401D01*
X2053622Y-3586551D01*
X1986600Y-3461161D01*
X1986600Y-2114552D01*
X2000000Y-2110488D01*
X2050518Y-2125812D01*
X2175000Y-2138072D01*
X2325000Y-2138072D01*
X2449482Y-2125812D01*
X2500000Y-2110488D01*
X2550518Y-2125812D01*
X2675000Y-2138072D01*
X2825000Y-2138072D01*
X2949482Y-2125812D01*
X2998477Y-2110949D01*
X3024890Y-2120164D01*
X3091250Y-2135000D01*
X3250000Y-1976250D01*
X3408750Y-2135000D01*
X3475110Y-2120164D01*
X3501523Y-2110949D01*
X3550518Y-2125812D01*
X3675000Y-2138072D01*
X3825000Y-2138072D01*
X3949482Y-2125812D01*
X4069180Y-2089502D01*
X4179494Y-2030537D01*
X4276185Y-1951185D01*
X4355537Y-1854494D01*
X4414502Y-1744180D01*
X4450812Y-1624482D01*
X4463072Y-1500000D01*
X4463072Y-570000D01*
X7551928Y-570000D01*
X7555000Y-984250D01*
X7713750Y-1143000D01*
X8763000Y-1143000D01*
X8763000Y-93750D01*
X8604250Y65000D01*
X8190000Y68072D01*
X8065518Y55812D01*
X7945820Y19502D01*
X7835506Y-39463D01*
X7738815Y-118815D01*
X7659463Y-215506D01*
X7600498Y-325820D01*
X7564188Y-445518D01*
X7551928Y-570000D01*
X4463072Y-570000D01*
X4463072Y-100000D01*
X4462954Y-98800D01*
X5359106Y-98800D01*
X5503138Y-195040D01*
X5674171Y-265884D01*
X5855738Y-302000D01*
X6040862Y-302000D01*
X6222429Y-265884D01*
X6393462Y-195040D01*
X6547387Y-92190D01*
X6678290Y38713D01*
X6781140Y192638D01*
X6851984Y363671D01*
X6888100Y545238D01*
X6888100Y672043D01*
X6951185Y723815D01*
X7030537Y820506D01*
X7089502Y930820D01*
X7125812Y1050518D01*
X7138072Y1175000D01*
X7138072Y1325000D01*
X7125812Y1449482D01*
X7110488Y1500000D01*
X7125812Y1550518D01*
X7138072Y1675000D01*
X7138072Y1825000D01*
X7125812Y1949482D01*
X7110949Y1998477D01*
X7120164Y2024890D01*
X7135000Y2091250D01*
X6976250Y2250000D01*
X7135000Y2408750D01*
X7120164Y2475110D01*
X7110949Y2501523D01*
X7125812Y2550518D01*
X7138072Y2675000D01*
X7138072Y2825000D01*
X7125812Y2949482D01*
X7110488Y3000000D01*
X7114552Y3013400D01*
X8021928Y3013400D01*
X8021928Y2820000D01*
X8038031Y2656500D01*
X8085722Y2499284D01*
X8163169Y2354392D01*
X8267394Y2227394D01*
X8394392Y2123169D01*
X8539284Y2045722D01*
X8696500Y1998031D01*
X8797051Y1988128D01*
X8770010Y1961087D01*
X8667160Y1807162D01*
X8596316Y1636129D01*
X8560200Y1454562D01*
X8560200Y1269438D01*
X8596316Y1087871D01*
X8667160Y916838D01*
X8770010Y762913D01*
X8900913Y632010D01*
X9054838Y529160D01*
X9225871Y458316D01*
X9407438Y422200D01*
X9592562Y422200D01*
X9774129Y458316D01*
X9945162Y529160D01*
X10089194Y625400D01*
X10525817Y625400D01*
X10562000Y621836D01*
X10598183Y625400D01*
X10598186Y625400D01*
X10706399Y636058D01*
X10845249Y678178D01*
X10973213Y746576D01*
X11085375Y838625D01*
X11108446Y866737D01*
X11305268Y1063559D01*
X11333374Y1086625D01*
X11425424Y1198787D01*
X11493822Y1326751D01*
X11535942Y1465601D01*
X11546600Y1573814D01*
X11546600Y1573815D01*
X11550164Y1610000D01*
X11546600Y1646186D01*
X11546600Y2140397D01*
X11652606Y2227394D01*
X11756831Y2354392D01*
X11834278Y2499284D01*
X11881969Y2656500D01*
X11898072Y2820000D01*
X11898072Y3220000D01*
X11881969Y3383500D01*
X11834278Y3540716D01*
X11756831Y3685608D01*
X11652606Y3812606D01*
X11605932Y3850910D01*
X11645162Y3867160D01*
X11799087Y3970010D01*
X11929990Y4100913D01*
X11940001Y4115895D01*
X11940001Y1032289D01*
G37*
G04 #@! TD.AperFunction*
D22*
X-9935000Y17985750D02*
X-9776250Y17827000D01*
X-8627000Y17827000D01*
X-8627000Y17847000D01*
X-8373000Y17847000D01*
X-8373000Y17827000D01*
X-7223750Y17827000D01*
X-7065000Y17985750D01*
X-7061949Y19440000D01*
X-4651398Y19440000D01*
X-4680537Y19404494D01*
X-4739502Y19294180D01*
X-4775812Y19174482D01*
X-4788072Y19050000D01*
X-4785000Y18385750D01*
X-4626250Y18227000D01*
X-3377000Y18227000D01*
X-3377000Y18247000D01*
X-3123000Y18247000D01*
X-3123000Y18227000D01*
X-1873750Y18227000D01*
X-1715000Y18385750D01*
X-1711928Y19050000D01*
X-1724188Y19174482D01*
X-1760498Y19294180D01*
X-1819463Y19404494D01*
X-1848602Y19440000D01*
X1848602Y19440000D01*
X1819463Y19404494D01*
X1760498Y19294180D01*
X1724188Y19174482D01*
X1711928Y19050000D01*
X1715000Y18385750D01*
X1873750Y18227000D01*
X3123000Y18227000D01*
X3123000Y18247000D01*
X3377000Y18247000D01*
X3377000Y18227000D01*
X4626250Y18227000D01*
X4785000Y18385750D01*
X4788072Y19050000D01*
X4775812Y19174482D01*
X4739502Y19294180D01*
X4680537Y19404494D01*
X4651398Y19440000D01*
X11567721Y19440000D01*
X11665424Y19430420D01*
X11728356Y19411420D01*
X11786405Y19380555D01*
X11837343Y19339011D01*
X11879248Y19288356D01*
X11910515Y19230529D01*
X11929956Y19167728D01*
X11940000Y19072165D01*
X11940001Y5284105D01*
X11929990Y5299087D01*
X11799087Y5429990D01*
X11645162Y5532840D01*
X11546600Y5573666D01*
X11546600Y6130397D01*
X11652606Y6217394D01*
X11756831Y6344392D01*
X11834278Y6489284D01*
X11881969Y6646500D01*
X11898072Y6810000D01*
X11898072Y7210000D01*
X11881969Y7373500D01*
X11834278Y7530716D01*
X11756831Y7675608D01*
X11652606Y7802606D01*
X11525608Y7906831D01*
X11380716Y7984278D01*
X11223500Y8031969D01*
X11060000Y8048072D01*
X10560000Y8048072D01*
X10396500Y8031969D01*
X10239284Y7984278D01*
X10094392Y7906831D01*
X9967394Y7802606D01*
X9960000Y7793596D01*
X9952606Y7802606D01*
X9825608Y7906831D01*
X9802430Y7919220D01*
X10050369Y8167159D01*
X10078475Y8190225D01*
X10118258Y8238700D01*
X10144255Y8270378D01*
X10170524Y8302387D01*
X10238922Y8430351D01*
X10281042Y8569201D01*
X10291700Y8677414D01*
X10291700Y8677423D01*
X10295263Y8713599D01*
X10291700Y8749775D01*
X10291700Y11888195D01*
X10309584Y11931371D01*
X10345700Y12112938D01*
X10345700Y12298062D01*
X10309584Y12479629D01*
X10238740Y12650662D01*
X10135890Y12804587D01*
X10004987Y12935490D01*
X9851062Y13038340D01*
X9680029Y13109184D01*
X9498462Y13145300D01*
X9313338Y13145300D01*
X9131771Y13109184D01*
X8960738Y13038340D01*
X8806813Y12935490D01*
X8675910Y12804587D01*
X8573060Y12650662D01*
X8502216Y12479629D01*
X8466100Y12298062D01*
X8466100Y12112938D01*
X8502216Y11931371D01*
X8573060Y11760338D01*
X8675910Y11606413D01*
X8806813Y11475510D01*
X8818500Y11467701D01*
X8818501Y10006900D01*
X8794638Y10006900D01*
X8613071Y9970784D01*
X8512919Y9929300D01*
X7783975Y9929300D01*
X7747799Y9932863D01*
X7711623Y9929300D01*
X7711614Y9929300D01*
X7603401Y9918642D01*
X7464551Y9876522D01*
X7336587Y9808124D01*
X7224425Y9716075D01*
X7201359Y9687969D01*
X6862421Y9349031D01*
X6854494Y9355537D01*
X6840258Y9363146D01*
X6903684Y9516271D01*
X6939800Y9697838D01*
X6939800Y9882962D01*
X6903684Y10064529D01*
X6832840Y10235562D01*
X6729990Y10389487D01*
X6599087Y10520390D01*
X6445162Y10623240D01*
X6274129Y10694084D01*
X6092562Y10730200D01*
X5907438Y10730200D01*
X5725871Y10694084D01*
X5554838Y10623240D01*
X5410806Y10527000D01*
X4627000Y10527000D01*
X4627000Y11700000D01*
X4624560Y11724776D01*
X4617333Y11748601D01*
X4605597Y11770557D01*
X4589803Y11789803D01*
X4570557Y11805597D01*
X4548601Y11817333D01*
X4524776Y11824560D01*
X4500000Y11827000D01*
X4372262Y11827000D01*
X4369666Y11832378D01*
X4294356Y11932251D01*
X4201010Y12015512D01*
X4093213Y12078962D01*
X3975110Y12120164D01*
X3908750Y12135000D01*
X3750000Y11976250D01*
X3591250Y12135000D01*
X3524890Y12120164D01*
X3498477Y12110949D01*
X3449482Y12125812D01*
X3325000Y12138072D01*
X3175000Y12138072D01*
X3050518Y12125812D01*
X3000000Y12110488D01*
X2949482Y12125812D01*
X2825000Y12138072D01*
X2675000Y12138072D01*
X2550518Y12125812D01*
X2500000Y12110488D01*
X2449482Y12125812D01*
X2325000Y12138072D01*
X2175000Y12138072D01*
X2050518Y12125812D01*
X2001523Y12110949D01*
X1975110Y12120164D01*
X1908750Y12135000D01*
X1750000Y11976250D01*
X1591250Y12135000D01*
X1524890Y12120164D01*
X1498477Y12110949D01*
X1486600Y12114552D01*
X1486600Y13715533D01*
X1574482Y13724188D01*
X1694180Y13760498D01*
X1804494Y13819463D01*
X1901185Y13898815D01*
X1980537Y13995506D01*
X2039502Y14105820D01*
X2041606Y14112755D01*
X2050000Y14111928D01*
X2814250Y14115000D01*
X2973000Y14273750D01*
X2973000Y15423000D01*
X3227000Y15423000D01*
X3227000Y14273750D01*
X3385750Y14115000D01*
X4150000Y14111928D01*
X4274482Y14124188D01*
X4394180Y14160498D01*
X4504494Y14219463D01*
X4601185Y14298815D01*
X4680537Y14395506D01*
X4739502Y14505820D01*
X4775812Y14625518D01*
X4788072Y14750000D01*
X4785000Y15264250D01*
X4626250Y15423000D01*
X3227000Y15423000D01*
X2973000Y15423000D01*
X2953000Y15423000D01*
X2953000Y15677000D01*
X2973000Y15677000D01*
X2973000Y15697000D01*
X3227000Y15697000D01*
X3227000Y15677000D01*
X4626250Y15677000D01*
X4785000Y15835750D01*
X4786578Y16100000D01*
X6561928Y16100000D01*
X6574188Y15975518D01*
X6610498Y15855820D01*
X6669463Y15745506D01*
X6748815Y15648815D01*
X6845506Y15569463D01*
X6955820Y15510498D01*
X7075518Y15474188D01*
X7200000Y15461928D01*
X7364250Y15465000D01*
X7523000Y15623750D01*
X7523000Y16373000D01*
X6723750Y16373000D01*
X6565000Y16214250D01*
X6561928Y16100000D01*
X4786578Y16100000D01*
X4788072Y16350000D01*
X4775812Y16474482D01*
X4739502Y16594180D01*
X4680537Y16704494D01*
X4643191Y16750000D01*
X4680537Y16795506D01*
X4736391Y16900000D01*
X6561928Y16900000D01*
X6565000Y16785750D01*
X6723750Y16627000D01*
X7523000Y16627000D01*
X7523000Y17376250D01*
X7777000Y17376250D01*
X7777000Y16627000D01*
X7797000Y16627000D01*
X7797000Y16373000D01*
X7777000Y16373000D01*
X7777000Y15623750D01*
X7935750Y15465000D01*
X8100000Y15461928D01*
X8224482Y15474188D01*
X8344180Y15510498D01*
X8454494Y15569463D01*
X8551185Y15648815D01*
X8562288Y15662344D01*
X8634392Y15603169D01*
X8779284Y15525722D01*
X8936500Y15478031D01*
X9100000Y15461928D01*
X9600000Y15461928D01*
X9763500Y15478031D01*
X9920716Y15525722D01*
X10065608Y15603169D01*
X10192606Y15707394D01*
X10193321Y15708265D01*
X10254838Y15667160D01*
X10425871Y15596316D01*
X10607438Y15560200D01*
X10792562Y15560200D01*
X10974129Y15596316D01*
X11145162Y15667160D01*
X11299087Y15770010D01*
X11429990Y15900913D01*
X11532840Y16054838D01*
X11603684Y16225871D01*
X11639800Y16407438D01*
X11639800Y16592562D01*
X11603684Y16774129D01*
X11532840Y16945162D01*
X11429990Y17099087D01*
X11299087Y17229990D01*
X11145162Y17332840D01*
X10974129Y17403684D01*
X10792562Y17439800D01*
X10607438Y17439800D01*
X10425871Y17403684D01*
X10254838Y17332840D01*
X10193321Y17291735D01*
X10192606Y17292606D01*
X10065608Y17396831D01*
X9920716Y17474278D01*
X9763500Y17521969D01*
X9600000Y17538072D01*
X9100000Y17538072D01*
X8936500Y17521969D01*
X8779284Y17474278D01*
X8634392Y17396831D01*
X8562288Y17337656D01*
X8551185Y17351185D01*
X8454494Y17430537D01*
X8344180Y17489502D01*
X8224482Y17525812D01*
X8100000Y17538072D01*
X7935750Y17535000D01*
X7777000Y17376250D01*
X7523000Y17376250D01*
X7364250Y17535000D01*
X7200000Y17538072D01*
X7075518Y17525812D01*
X6955820Y17489502D01*
X6845506Y17430537D01*
X6748815Y17351185D01*
X6669463Y17254494D01*
X6610498Y17144180D01*
X6574188Y17024482D01*
X6561928Y16900000D01*
X4736391Y16900000D01*
X4739502Y16905820D01*
X4775812Y17025518D01*
X4788072Y17150000D01*
X4785000Y17814250D01*
X4626250Y17973000D01*
X3377000Y17973000D01*
X3377000Y17953000D01*
X3123000Y17953000D01*
X3123000Y17973000D01*
X1873750Y17973000D01*
X1715000Y17814250D01*
X1714668Y17742566D01*
X1559499Y17897735D01*
X1531659Y17931659D01*
X1396291Y18042753D01*
X1241851Y18125303D01*
X1074274Y18176136D01*
X943667Y18189000D01*
X943660Y18189000D01*
X900000Y18193300D01*
X856340Y18189000D01*
X9579Y18189000D01*
X-25871Y18203684D01*
X-207438Y18239800D01*
X-392562Y18239800D01*
X-574129Y18203684D01*
X-745162Y18132840D01*
X-899087Y18029990D01*
X-1029990Y17899087D01*
X-1132840Y17745162D01*
X-1203684Y17574129D01*
X-1239800Y17392562D01*
X-1239800Y17207438D01*
X-1203684Y17025871D01*
X-1132840Y16854838D01*
X-1047680Y16727387D01*
X-1118250Y16735000D01*
X-1277000Y16576250D01*
X-1277000Y16519729D01*
X-1323000Y16463678D01*
X-1323000Y16576250D01*
X-1481750Y16735000D01*
X-1539395Y16728781D01*
X-1598815Y16801185D01*
X-1695506Y16880537D01*
X-1758030Y16913957D01*
X-1724188Y17025518D01*
X-1711928Y17150000D01*
X-1715000Y17814250D01*
X-1873750Y17973000D01*
X-3123000Y17973000D01*
X-3123000Y17953000D01*
X-3377000Y17953000D01*
X-3377000Y17973000D01*
X-4626250Y17973000D01*
X-4785000Y17814250D01*
X-4788072Y17150000D01*
X-4775812Y17025518D01*
X-4739502Y16905820D01*
X-4680537Y16795506D01*
X-4643191Y16750000D01*
X-4680537Y16704494D01*
X-4739502Y16594180D01*
X-4775812Y16474482D01*
X-4788072Y16350000D01*
X-4785000Y15835750D01*
X-4626250Y15677000D01*
X-3227000Y15677000D01*
X-3227000Y15697000D01*
X-2973000Y15697000D01*
X-2973000Y15677000D01*
X-2953000Y15677000D01*
X-2953000Y15423000D01*
X-2973000Y15423000D01*
X-2973000Y14273750D01*
X-2814250Y14115000D01*
X-2050000Y14111928D01*
X-2042187Y14112697D01*
X-1985209Y14002600D01*
X-1907151Y13904861D01*
X-1811524Y13824228D01*
X-1702005Y13763801D01*
X-1582801Y13725901D01*
X-1481750Y13715000D01*
X-1323000Y13873750D01*
X-1323000Y13986322D01*
X-1277000Y13930271D01*
X-1277000Y13873750D01*
X-1134626Y13731376D01*
X-1288234Y13628737D01*
X-1419137Y13497834D01*
X-1521987Y13343909D01*
X-1592831Y13172876D01*
X-1628947Y12991309D01*
X-1628947Y12806185D01*
X-1592831Y12624618D01*
X-1521987Y12453585D01*
X-1419137Y12299660D01*
X-1288234Y12168757D01*
X-1149915Y12076335D01*
X-1250000Y11976250D01*
X-1408750Y12135000D01*
X-1475110Y12120164D01*
X-1501523Y12110949D01*
X-1550518Y12125812D01*
X-1675000Y12138072D01*
X-1825000Y12138072D01*
X-1949482Y12125812D01*
X-1998477Y12110949D01*
X-2024890Y12120164D01*
X-2091250Y12135000D01*
X-2250000Y11976250D01*
X-2408750Y12135000D01*
X-2475110Y12120164D01*
X-2501523Y12110949D01*
X-2550518Y12125812D01*
X-2675000Y12138072D01*
X-2825000Y12138072D01*
X-2949482Y12125812D01*
X-2998477Y12110949D01*
X-3024890Y12120164D01*
X-3032383Y12121839D01*
X-3066178Y12233247D01*
X-3134577Y12361213D01*
X-3203558Y12445267D01*
X-3353554Y12595263D01*
X-3376625Y12623375D01*
X-3488787Y12715424D01*
X-3616751Y12783822D01*
X-3755601Y12825942D01*
X-3863814Y12836600D01*
X-3863817Y12836600D01*
X-3900000Y12840164D01*
X-3936183Y12836600D01*
X-4463814Y12836600D01*
X-4500000Y12840164D01*
X-4536186Y12836600D01*
X-4644399Y12825942D01*
X-4783249Y12783822D01*
X-4911213Y12715424D01*
X-5023375Y12623375D01*
X-5046441Y12595268D01*
X-5104231Y12537479D01*
X-5274129Y12503684D01*
X-5445162Y12432840D01*
X-5599087Y12329990D01*
X-5729990Y12199087D01*
X-5832840Y12045162D01*
X-5903684Y11874129D01*
X-5939800Y11692562D01*
X-5939800Y11507438D01*
X-5903684Y11325871D01*
X-5891850Y11297300D01*
X-6455503Y11297300D01*
X-7061928Y11903690D01*
X-7061928Y13800000D01*
X-7078992Y13973254D01*
X-7129528Y14139850D01*
X-7211595Y14293386D01*
X-7322038Y14427962D01*
X-7456614Y14538405D01*
X-7610150Y14620472D01*
X-7611000Y14620730D01*
X-7611000Y14750000D01*
X-4788072Y14750000D01*
X-4775812Y14625518D01*
X-4739502Y14505820D01*
X-4680537Y14395506D01*
X-4601185Y14298815D01*
X-4504494Y14219463D01*
X-4394180Y14160498D01*
X-4274482Y14124188D01*
X-4150000Y14111928D01*
X-3385750Y14115000D01*
X-3227000Y14273750D01*
X-3227000Y15423000D01*
X-4626250Y15423000D01*
X-4785000Y15264250D01*
X-4788072Y14750000D01*
X-7611000Y14750000D01*
X-7611000Y14956340D01*
X-7606700Y15000000D01*
X-7611000Y15043660D01*
X-7611000Y15043667D01*
X-7623864Y15174274D01*
X-7628274Y15188814D01*
X-7650228Y15261186D01*
X-7666617Y15315216D01*
X-7575518Y15324188D01*
X-7455820Y15360498D01*
X-7345506Y15419463D01*
X-7248815Y15498815D01*
X-7169463Y15595506D01*
X-7110498Y15705820D01*
X-7074188Y15825518D01*
X-7061928Y15950000D01*
X-7065000Y17414250D01*
X-7223750Y17573000D01*
X-8373000Y17573000D01*
X-8373000Y17553000D01*
X-8627000Y17553000D01*
X-8627000Y17573000D01*
X-9776250Y17573000D01*
X-9935000Y17414250D01*
X-9938072Y15950000D01*
X-9925812Y15825518D01*
X-9889502Y15705820D01*
X-9830537Y15595506D01*
X-9751185Y15498815D01*
X-9654494Y15419463D01*
X-9618396Y15400168D01*
X-9639800Y15292562D01*
X-9639800Y15107438D01*
X-9603684Y14925871D01*
X-9532840Y14754838D01*
X-9429990Y14600913D01*
X-9428754Y14599677D01*
X-9543386Y14538405D01*
X-9677962Y14427962D01*
X-9788405Y14293386D01*
X-9870472Y14139850D01*
X-9921008Y13973254D01*
X-9938072Y13800000D01*
X-9938072Y10800000D01*
X-9921008Y10626746D01*
X-9870472Y10460150D01*
X-9788405Y10306614D01*
X-9677962Y10172038D01*
X-9543386Y10061595D01*
X-9389850Y9979528D01*
X-9223254Y9928992D01*
X-9050000Y9911928D01*
X-8665188Y9911928D01*
X-8703062Y9896240D01*
X-8856987Y9793390D01*
X-8987890Y9662487D01*
X-9090740Y9508562D01*
X-9161584Y9337529D01*
X-9197700Y9155962D01*
X-9197700Y8970838D01*
X-9161584Y8789271D01*
X-9090740Y8618238D01*
X-8987890Y8464313D01*
X-8856987Y8333410D01*
X-8820123Y8308778D01*
X-8843141Y8232898D01*
X-8857364Y8088500D01*
X-8853799Y8052307D01*
X-8853800Y282783D01*
X-8857364Y246600D01*
X-8853800Y210417D01*
X-8853800Y210415D01*
X-8843142Y102202D01*
X-8801022Y-36648D01*
X-8763000Y-107782D01*
X-8763000Y-1143000D01*
X-8743000Y-1143000D01*
X-8743000Y-1397000D01*
X-8763000Y-1397000D01*
X-8763000Y-1417000D01*
X-9017000Y-1417000D01*
X-9017000Y-1397000D01*
X-9037000Y-1397000D01*
X-9037000Y-1143000D01*
X-9017000Y-1143000D01*
X-9017000Y-93750D01*
X-9175750Y65000D01*
X-9590000Y68072D01*
X-9714482Y55812D01*
X-9723073Y53206D01*
X-9786828Y130272D01*
X-9829263Y172411D01*
X-9871126Y215161D01*
X-9878227Y221034D01*
X-10029469Y344384D01*
X-10079262Y377466D01*
X-10128651Y411284D01*
X-10136757Y415667D01*
X-10309079Y507292D01*
X-10364394Y530091D01*
X-10419366Y553652D01*
X-10428169Y556377D01*
X-10615005Y612786D01*
X-10673693Y624406D01*
X-10732196Y636842D01*
X-10741361Y637805D01*
X-10935595Y656850D01*
X-10935598Y656850D01*
X-10967581Y660000D01*
X-11567721Y660000D01*
X-11665424Y669580D01*
X-11728357Y688580D01*
X-11786406Y719446D01*
X-11837343Y760989D01*
X-11879248Y811644D01*
X-11910515Y869471D01*
X-11929956Y932272D01*
X-11940000Y1027835D01*
X-11940000Y19067721D01*
X-11930420Y19165424D01*
X-11911420Y19228356D01*
X-11880555Y19286405D01*
X-11839011Y19337343D01*
X-11788356Y19379248D01*
X-11730529Y19410515D01*
X-11667728Y19429956D01*
X-11572165Y19440000D01*
X-9938051Y19440000D01*
X-9935000Y17985750D01*
G04 #@! TA.AperFunction,Conductor*
D23*
G36*
X-9935000Y17985750D02*
G01*
X-9776250Y17827000D01*
X-8627000Y17827000D01*
X-8627000Y17847000D01*
X-8373000Y17847000D01*
X-8373000Y17827000D01*
X-7223750Y17827000D01*
X-7065000Y17985750D01*
X-7061949Y19440000D01*
X-4651398Y19440000D01*
X-4680537Y19404494D01*
X-4739502Y19294180D01*
X-4775812Y19174482D01*
X-4788072Y19050000D01*
X-4785000Y18385750D01*
X-4626250Y18227000D01*
X-3377000Y18227000D01*
X-3377000Y18247000D01*
X-3123000Y18247000D01*
X-3123000Y18227000D01*
X-1873750Y18227000D01*
X-1715000Y18385750D01*
X-1711928Y19050000D01*
X-1724188Y19174482D01*
X-1760498Y19294180D01*
X-1819463Y19404494D01*
X-1848602Y19440000D01*
X1848602Y19440000D01*
X1819463Y19404494D01*
X1760498Y19294180D01*
X1724188Y19174482D01*
X1711928Y19050000D01*
X1715000Y18385750D01*
X1873750Y18227000D01*
X3123000Y18227000D01*
X3123000Y18247000D01*
X3377000Y18247000D01*
X3377000Y18227000D01*
X4626250Y18227000D01*
X4785000Y18385750D01*
X4788072Y19050000D01*
X4775812Y19174482D01*
X4739502Y19294180D01*
X4680537Y19404494D01*
X4651398Y19440000D01*
X11567721Y19440000D01*
X11665424Y19430420D01*
X11728356Y19411420D01*
X11786405Y19380555D01*
X11837343Y19339011D01*
X11879248Y19288356D01*
X11910515Y19230529D01*
X11929956Y19167728D01*
X11940000Y19072165D01*
X11940001Y5284105D01*
X11929990Y5299087D01*
X11799087Y5429990D01*
X11645162Y5532840D01*
X11546600Y5573666D01*
X11546600Y6130397D01*
X11652606Y6217394D01*
X11756831Y6344392D01*
X11834278Y6489284D01*
X11881969Y6646500D01*
X11898072Y6810000D01*
X11898072Y7210000D01*
X11881969Y7373500D01*
X11834278Y7530716D01*
X11756831Y7675608D01*
X11652606Y7802606D01*
X11525608Y7906831D01*
X11380716Y7984278D01*
X11223500Y8031969D01*
X11060000Y8048072D01*
X10560000Y8048072D01*
X10396500Y8031969D01*
X10239284Y7984278D01*
X10094392Y7906831D01*
X9967394Y7802606D01*
X9960000Y7793596D01*
X9952606Y7802606D01*
X9825608Y7906831D01*
X9802430Y7919220D01*
X10050369Y8167159D01*
X10078475Y8190225D01*
X10118258Y8238700D01*
X10144255Y8270378D01*
X10170524Y8302387D01*
X10238922Y8430351D01*
X10281042Y8569201D01*
X10291700Y8677414D01*
X10291700Y8677423D01*
X10295263Y8713599D01*
X10291700Y8749775D01*
X10291700Y11888195D01*
X10309584Y11931371D01*
X10345700Y12112938D01*
X10345700Y12298062D01*
X10309584Y12479629D01*
X10238740Y12650662D01*
X10135890Y12804587D01*
X10004987Y12935490D01*
X9851062Y13038340D01*
X9680029Y13109184D01*
X9498462Y13145300D01*
X9313338Y13145300D01*
X9131771Y13109184D01*
X8960738Y13038340D01*
X8806813Y12935490D01*
X8675910Y12804587D01*
X8573060Y12650662D01*
X8502216Y12479629D01*
X8466100Y12298062D01*
X8466100Y12112938D01*
X8502216Y11931371D01*
X8573060Y11760338D01*
X8675910Y11606413D01*
X8806813Y11475510D01*
X8818500Y11467701D01*
X8818501Y10006900D01*
X8794638Y10006900D01*
X8613071Y9970784D01*
X8512919Y9929300D01*
X7783975Y9929300D01*
X7747799Y9932863D01*
X7711623Y9929300D01*
X7711614Y9929300D01*
X7603401Y9918642D01*
X7464551Y9876522D01*
X7336587Y9808124D01*
X7224425Y9716075D01*
X7201359Y9687969D01*
X6862421Y9349031D01*
X6854494Y9355537D01*
X6840258Y9363146D01*
X6903684Y9516271D01*
X6939800Y9697838D01*
X6939800Y9882962D01*
X6903684Y10064529D01*
X6832840Y10235562D01*
X6729990Y10389487D01*
X6599087Y10520390D01*
X6445162Y10623240D01*
X6274129Y10694084D01*
X6092562Y10730200D01*
X5907438Y10730200D01*
X5725871Y10694084D01*
X5554838Y10623240D01*
X5410806Y10527000D01*
X4627000Y10527000D01*
X4627000Y11700000D01*
X4624560Y11724776D01*
X4617333Y11748601D01*
X4605597Y11770557D01*
X4589803Y11789803D01*
X4570557Y11805597D01*
X4548601Y11817333D01*
X4524776Y11824560D01*
X4500000Y11827000D01*
X4372262Y11827000D01*
X4369666Y11832378D01*
X4294356Y11932251D01*
X4201010Y12015512D01*
X4093213Y12078962D01*
X3975110Y12120164D01*
X3908750Y12135000D01*
X3750000Y11976250D01*
X3591250Y12135000D01*
X3524890Y12120164D01*
X3498477Y12110949D01*
X3449482Y12125812D01*
X3325000Y12138072D01*
X3175000Y12138072D01*
X3050518Y12125812D01*
X3000000Y12110488D01*
X2949482Y12125812D01*
X2825000Y12138072D01*
X2675000Y12138072D01*
X2550518Y12125812D01*
X2500000Y12110488D01*
X2449482Y12125812D01*
X2325000Y12138072D01*
X2175000Y12138072D01*
X2050518Y12125812D01*
X2001523Y12110949D01*
X1975110Y12120164D01*
X1908750Y12135000D01*
X1750000Y11976250D01*
X1591250Y12135000D01*
X1524890Y12120164D01*
X1498477Y12110949D01*
X1486600Y12114552D01*
X1486600Y13715533D01*
X1574482Y13724188D01*
X1694180Y13760498D01*
X1804494Y13819463D01*
X1901185Y13898815D01*
X1980537Y13995506D01*
X2039502Y14105820D01*
X2041606Y14112755D01*
X2050000Y14111928D01*
X2814250Y14115000D01*
X2973000Y14273750D01*
X2973000Y15423000D01*
X3227000Y15423000D01*
X3227000Y14273750D01*
X3385750Y14115000D01*
X4150000Y14111928D01*
X4274482Y14124188D01*
X4394180Y14160498D01*
X4504494Y14219463D01*
X4601185Y14298815D01*
X4680537Y14395506D01*
X4739502Y14505820D01*
X4775812Y14625518D01*
X4788072Y14750000D01*
X4785000Y15264250D01*
X4626250Y15423000D01*
X3227000Y15423000D01*
X2973000Y15423000D01*
X2953000Y15423000D01*
X2953000Y15677000D01*
X2973000Y15677000D01*
X2973000Y15697000D01*
X3227000Y15697000D01*
X3227000Y15677000D01*
X4626250Y15677000D01*
X4785000Y15835750D01*
X4786578Y16100000D01*
X6561928Y16100000D01*
X6574188Y15975518D01*
X6610498Y15855820D01*
X6669463Y15745506D01*
X6748815Y15648815D01*
X6845506Y15569463D01*
X6955820Y15510498D01*
X7075518Y15474188D01*
X7200000Y15461928D01*
X7364250Y15465000D01*
X7523000Y15623750D01*
X7523000Y16373000D01*
X6723750Y16373000D01*
X6565000Y16214250D01*
X6561928Y16100000D01*
X4786578Y16100000D01*
X4788072Y16350000D01*
X4775812Y16474482D01*
X4739502Y16594180D01*
X4680537Y16704494D01*
X4643191Y16750000D01*
X4680537Y16795506D01*
X4736391Y16900000D01*
X6561928Y16900000D01*
X6565000Y16785750D01*
X6723750Y16627000D01*
X7523000Y16627000D01*
X7523000Y17376250D01*
X7777000Y17376250D01*
X7777000Y16627000D01*
X7797000Y16627000D01*
X7797000Y16373000D01*
X7777000Y16373000D01*
X7777000Y15623750D01*
X7935750Y15465000D01*
X8100000Y15461928D01*
X8224482Y15474188D01*
X8344180Y15510498D01*
X8454494Y15569463D01*
X8551185Y15648815D01*
X8562288Y15662344D01*
X8634392Y15603169D01*
X8779284Y15525722D01*
X8936500Y15478031D01*
X9100000Y15461928D01*
X9600000Y15461928D01*
X9763500Y15478031D01*
X9920716Y15525722D01*
X10065608Y15603169D01*
X10192606Y15707394D01*
X10193321Y15708265D01*
X10254838Y15667160D01*
X10425871Y15596316D01*
X10607438Y15560200D01*
X10792562Y15560200D01*
X10974129Y15596316D01*
X11145162Y15667160D01*
X11299087Y15770010D01*
X11429990Y15900913D01*
X11532840Y16054838D01*
X11603684Y16225871D01*
X11639800Y16407438D01*
X11639800Y16592562D01*
X11603684Y16774129D01*
X11532840Y16945162D01*
X11429990Y17099087D01*
X11299087Y17229990D01*
X11145162Y17332840D01*
X10974129Y17403684D01*
X10792562Y17439800D01*
X10607438Y17439800D01*
X10425871Y17403684D01*
X10254838Y17332840D01*
X10193321Y17291735D01*
X10192606Y17292606D01*
X10065608Y17396831D01*
X9920716Y17474278D01*
X9763500Y17521969D01*
X9600000Y17538072D01*
X9100000Y17538072D01*
X8936500Y17521969D01*
X8779284Y17474278D01*
X8634392Y17396831D01*
X8562288Y17337656D01*
X8551185Y17351185D01*
X8454494Y17430537D01*
X8344180Y17489502D01*
X8224482Y17525812D01*
X8100000Y17538072D01*
X7935750Y17535000D01*
X7777000Y17376250D01*
X7523000Y17376250D01*
X7364250Y17535000D01*
X7200000Y17538072D01*
X7075518Y17525812D01*
X6955820Y17489502D01*
X6845506Y17430537D01*
X6748815Y17351185D01*
X6669463Y17254494D01*
X6610498Y17144180D01*
X6574188Y17024482D01*
X6561928Y16900000D01*
X4736391Y16900000D01*
X4739502Y16905820D01*
X4775812Y17025518D01*
X4788072Y17150000D01*
X4785000Y17814250D01*
X4626250Y17973000D01*
X3377000Y17973000D01*
X3377000Y17953000D01*
X3123000Y17953000D01*
X3123000Y17973000D01*
X1873750Y17973000D01*
X1715000Y17814250D01*
X1714668Y17742566D01*
X1559499Y17897735D01*
X1531659Y17931659D01*
X1396291Y18042753D01*
X1241851Y18125303D01*
X1074274Y18176136D01*
X943667Y18189000D01*
X943660Y18189000D01*
X900000Y18193300D01*
X856340Y18189000D01*
X9579Y18189000D01*
X-25871Y18203684D01*
X-207438Y18239800D01*
X-392562Y18239800D01*
X-574129Y18203684D01*
X-745162Y18132840D01*
X-899087Y18029990D01*
X-1029990Y17899087D01*
X-1132840Y17745162D01*
X-1203684Y17574129D01*
X-1239800Y17392562D01*
X-1239800Y17207438D01*
X-1203684Y17025871D01*
X-1132840Y16854838D01*
X-1047680Y16727387D01*
X-1118250Y16735000D01*
X-1277000Y16576250D01*
X-1277000Y16519729D01*
X-1323000Y16463678D01*
X-1323000Y16576250D01*
X-1481750Y16735000D01*
X-1539395Y16728781D01*
X-1598815Y16801185D01*
X-1695506Y16880537D01*
X-1758030Y16913957D01*
X-1724188Y17025518D01*
X-1711928Y17150000D01*
X-1715000Y17814250D01*
X-1873750Y17973000D01*
X-3123000Y17973000D01*
X-3123000Y17953000D01*
X-3377000Y17953000D01*
X-3377000Y17973000D01*
X-4626250Y17973000D01*
X-4785000Y17814250D01*
X-4788072Y17150000D01*
X-4775812Y17025518D01*
X-4739502Y16905820D01*
X-4680537Y16795506D01*
X-4643191Y16750000D01*
X-4680537Y16704494D01*
X-4739502Y16594180D01*
X-4775812Y16474482D01*
X-4788072Y16350000D01*
X-4785000Y15835750D01*
X-4626250Y15677000D01*
X-3227000Y15677000D01*
X-3227000Y15697000D01*
X-2973000Y15697000D01*
X-2973000Y15677000D01*
X-2953000Y15677000D01*
X-2953000Y15423000D01*
X-2973000Y15423000D01*
X-2973000Y14273750D01*
X-2814250Y14115000D01*
X-2050000Y14111928D01*
X-2042187Y14112697D01*
X-1985209Y14002600D01*
X-1907151Y13904861D01*
X-1811524Y13824228D01*
X-1702005Y13763801D01*
X-1582801Y13725901D01*
X-1481750Y13715000D01*
X-1323000Y13873750D01*
X-1323000Y13986322D01*
X-1277000Y13930271D01*
X-1277000Y13873750D01*
X-1134626Y13731376D01*
X-1288234Y13628737D01*
X-1419137Y13497834D01*
X-1521987Y13343909D01*
X-1592831Y13172876D01*
X-1628947Y12991309D01*
X-1628947Y12806185D01*
X-1592831Y12624618D01*
X-1521987Y12453585D01*
X-1419137Y12299660D01*
X-1288234Y12168757D01*
X-1149915Y12076335D01*
X-1250000Y11976250D01*
X-1408750Y12135000D01*
X-1475110Y12120164D01*
X-1501523Y12110949D01*
X-1550518Y12125812D01*
X-1675000Y12138072D01*
X-1825000Y12138072D01*
X-1949482Y12125812D01*
X-1998477Y12110949D01*
X-2024890Y12120164D01*
X-2091250Y12135000D01*
X-2250000Y11976250D01*
X-2408750Y12135000D01*
X-2475110Y12120164D01*
X-2501523Y12110949D01*
X-2550518Y12125812D01*
X-2675000Y12138072D01*
X-2825000Y12138072D01*
X-2949482Y12125812D01*
X-2998477Y12110949D01*
X-3024890Y12120164D01*
X-3032383Y12121839D01*
X-3066178Y12233247D01*
X-3134577Y12361213D01*
X-3203558Y12445267D01*
X-3353554Y12595263D01*
X-3376625Y12623375D01*
X-3488787Y12715424D01*
X-3616751Y12783822D01*
X-3755601Y12825942D01*
X-3863814Y12836600D01*
X-3863817Y12836600D01*
X-3900000Y12840164D01*
X-3936183Y12836600D01*
X-4463814Y12836600D01*
X-4500000Y12840164D01*
X-4536186Y12836600D01*
X-4644399Y12825942D01*
X-4783249Y12783822D01*
X-4911213Y12715424D01*
X-5023375Y12623375D01*
X-5046441Y12595268D01*
X-5104231Y12537479D01*
X-5274129Y12503684D01*
X-5445162Y12432840D01*
X-5599087Y12329990D01*
X-5729990Y12199087D01*
X-5832840Y12045162D01*
X-5903684Y11874129D01*
X-5939800Y11692562D01*
X-5939800Y11507438D01*
X-5903684Y11325871D01*
X-5891850Y11297300D01*
X-6455503Y11297300D01*
X-7061928Y11903690D01*
X-7061928Y13800000D01*
X-7078992Y13973254D01*
X-7129528Y14139850D01*
X-7211595Y14293386D01*
X-7322038Y14427962D01*
X-7456614Y14538405D01*
X-7610150Y14620472D01*
X-7611000Y14620730D01*
X-7611000Y14750000D01*
X-4788072Y14750000D01*
X-4775812Y14625518D01*
X-4739502Y14505820D01*
X-4680537Y14395506D01*
X-4601185Y14298815D01*
X-4504494Y14219463D01*
X-4394180Y14160498D01*
X-4274482Y14124188D01*
X-4150000Y14111928D01*
X-3385750Y14115000D01*
X-3227000Y14273750D01*
X-3227000Y15423000D01*
X-4626250Y15423000D01*
X-4785000Y15264250D01*
X-4788072Y14750000D01*
X-7611000Y14750000D01*
X-7611000Y14956340D01*
X-7606700Y15000000D01*
X-7611000Y15043660D01*
X-7611000Y15043667D01*
X-7623864Y15174274D01*
X-7628274Y15188814D01*
X-7650228Y15261186D01*
X-7666617Y15315216D01*
X-7575518Y15324188D01*
X-7455820Y15360498D01*
X-7345506Y15419463D01*
X-7248815Y15498815D01*
X-7169463Y15595506D01*
X-7110498Y15705820D01*
X-7074188Y15825518D01*
X-7061928Y15950000D01*
X-7065000Y17414250D01*
X-7223750Y17573000D01*
X-8373000Y17573000D01*
X-8373000Y17553000D01*
X-8627000Y17553000D01*
X-8627000Y17573000D01*
X-9776250Y17573000D01*
X-9935000Y17414250D01*
X-9938072Y15950000D01*
X-9925812Y15825518D01*
X-9889502Y15705820D01*
X-9830537Y15595506D01*
X-9751185Y15498815D01*
X-9654494Y15419463D01*
X-9618396Y15400168D01*
X-9639800Y15292562D01*
X-9639800Y15107438D01*
X-9603684Y14925871D01*
X-9532840Y14754838D01*
X-9429990Y14600913D01*
X-9428754Y14599677D01*
X-9543386Y14538405D01*
X-9677962Y14427962D01*
X-9788405Y14293386D01*
X-9870472Y14139850D01*
X-9921008Y13973254D01*
X-9938072Y13800000D01*
X-9938072Y10800000D01*
X-9921008Y10626746D01*
X-9870472Y10460150D01*
X-9788405Y10306614D01*
X-9677962Y10172038D01*
X-9543386Y10061595D01*
X-9389850Y9979528D01*
X-9223254Y9928992D01*
X-9050000Y9911928D01*
X-8665188Y9911928D01*
X-8703062Y9896240D01*
X-8856987Y9793390D01*
X-8987890Y9662487D01*
X-9090740Y9508562D01*
X-9161584Y9337529D01*
X-9197700Y9155962D01*
X-9197700Y8970838D01*
X-9161584Y8789271D01*
X-9090740Y8618238D01*
X-8987890Y8464313D01*
X-8856987Y8333410D01*
X-8820123Y8308778D01*
X-8843141Y8232898D01*
X-8857364Y8088500D01*
X-8853799Y8052307D01*
X-8853800Y282783D01*
X-8857364Y246600D01*
X-8853800Y210417D01*
X-8853800Y210415D01*
X-8843142Y102202D01*
X-8801022Y-36648D01*
X-8763000Y-107782D01*
X-8763000Y-1143000D01*
X-8743000Y-1143000D01*
X-8743000Y-1397000D01*
X-8763000Y-1397000D01*
X-8763000Y-1417000D01*
X-9017000Y-1417000D01*
X-9017000Y-1397000D01*
X-9037000Y-1397000D01*
X-9037000Y-1143000D01*
X-9017000Y-1143000D01*
X-9017000Y-93750D01*
X-9175750Y65000D01*
X-9590000Y68072D01*
X-9714482Y55812D01*
X-9723073Y53206D01*
X-9786828Y130272D01*
X-9829263Y172411D01*
X-9871126Y215161D01*
X-9878227Y221034D01*
X-10029469Y344384D01*
X-10079262Y377466D01*
X-10128651Y411284D01*
X-10136757Y415667D01*
X-10309079Y507292D01*
X-10364394Y530091D01*
X-10419366Y553652D01*
X-10428169Y556377D01*
X-10615005Y612786D01*
X-10673693Y624406D01*
X-10732196Y636842D01*
X-10741361Y637805D01*
X-10935595Y656850D01*
X-10935598Y656850D01*
X-10967581Y660000D01*
X-11567721Y660000D01*
X-11665424Y669580D01*
X-11728357Y688580D01*
X-11786406Y719446D01*
X-11837343Y760989D01*
X-11879248Y811644D01*
X-11910515Y869471D01*
X-11929956Y932272D01*
X-11940000Y1027835D01*
X-11940000Y19067721D01*
X-11930420Y19165424D01*
X-11911420Y19228356D01*
X-11880555Y19286405D01*
X-11839011Y19337343D01*
X-11788356Y19379248D01*
X-11730529Y19410515D01*
X-11667728Y19429956D01*
X-11572165Y19440000D01*
X-9938051Y19440000D01*
X-9935000Y17985750D01*
G37*
G04 #@! TD.AperFunction*
D22*
X-4445162Y3067160D02*
X-4274129Y2996316D01*
X-4166752Y2974957D01*
X-4461928Y2679781D01*
X-4461928Y2825000D01*
X-4474188Y2949482D01*
X-4489512Y3000000D01*
X-4474188Y3050518D01*
X-4470858Y3084330D01*
X-4445162Y3067160D01*
G04 #@! TA.AperFunction,Conductor*
D23*
G36*
X-4445162Y3067160D02*
G01*
X-4274129Y2996316D01*
X-4166752Y2974957D01*
X-4461928Y2679781D01*
X-4461928Y2825000D01*
X-4474188Y2949482D01*
X-4489512Y3000000D01*
X-4474188Y3050518D01*
X-4470858Y3084330D01*
X-4445162Y3067160D01*
G37*
G04 #@! TD.AperFunction*
D22*
X-3072162Y8755760D02*
X-2901129Y8684916D01*
X-2719562Y8648800D01*
X-2534438Y8648800D01*
X-2352871Y8684916D01*
X-2327998Y8695219D01*
X-2195162Y8606460D01*
X-2024129Y8535616D01*
X-1854230Y8501821D01*
X289354Y6358237D01*
X312425Y6330125D01*
X400205Y6258086D01*
X663400Y5994890D01*
X663401Y4578493D01*
X659836Y4542300D01*
X669278Y4446442D01*
X674059Y4397901D01*
X690057Y4345162D01*
X716178Y4259053D01*
X784576Y4131088D01*
X851790Y4049188D01*
X876626Y4018925D01*
X904732Y3995859D01*
X1113013Y3787578D01*
X1074129Y3803684D01*
X904230Y3837479D01*
X736844Y4004865D01*
X713774Y4032976D01*
X601612Y4125025D01*
X473648Y4193423D01*
X334798Y4235543D01*
X226585Y4246201D01*
X226582Y4246201D01*
X190399Y4249765D01*
X154216Y4246201D01*
X-2554213Y4246201D01*
X-2590399Y4249765D01*
X-2626585Y4246201D01*
X-3126169Y4246201D01*
X-3167160Y4345162D01*
X-3270010Y4499087D01*
X-3400913Y4629990D01*
X-3554838Y4732840D01*
X-3725871Y4803684D01*
X-3907438Y4839800D01*
X-4092562Y4839800D01*
X-4274129Y4803684D01*
X-4445162Y4732840D01*
X-4541931Y4668181D01*
X-4623750Y4750000D01*
X-4493477Y4880273D01*
X-4392562Y4860200D01*
X-4207438Y4860200D01*
X-4025871Y4896316D01*
X-3854838Y4967160D01*
X-3700913Y5070010D01*
X-3570010Y5200913D01*
X-3467160Y5354838D01*
X-3396316Y5525871D01*
X-3360200Y5707438D01*
X-3360200Y5892562D01*
X-3396316Y6074129D01*
X-3467160Y6245162D01*
X-3563400Y6389194D01*
X-3563400Y6863814D01*
X-3559836Y6900000D01*
X-3574058Y7044399D01*
X-3587818Y7089758D01*
X-3616178Y7183249D01*
X-3651857Y7250000D01*
X-3616178Y7316751D01*
X-3574058Y7455601D01*
X-3563400Y7563814D01*
X-3563400Y7563815D01*
X-3559836Y7600000D01*
X-3563400Y7636186D01*
X-3563400Y8605458D01*
X-3414438Y8667160D01*
X-3260513Y8770010D01*
X-3193612Y8836911D01*
X-3072162Y8755760D01*
G04 #@! TA.AperFunction,Conductor*
D23*
G36*
X-3072162Y8755760D02*
G01*
X-2901129Y8684916D01*
X-2719562Y8648800D01*
X-2534438Y8648800D01*
X-2352871Y8684916D01*
X-2327998Y8695219D01*
X-2195162Y8606460D01*
X-2024129Y8535616D01*
X-1854230Y8501821D01*
X289354Y6358237D01*
X312425Y6330125D01*
X400205Y6258086D01*
X663400Y5994890D01*
X663401Y4578493D01*
X659836Y4542300D01*
X669278Y4446442D01*
X674059Y4397901D01*
X690057Y4345162D01*
X716178Y4259053D01*
X784576Y4131088D01*
X851790Y4049188D01*
X876626Y4018925D01*
X904732Y3995859D01*
X1113013Y3787578D01*
X1074129Y3803684D01*
X904230Y3837479D01*
X736844Y4004865D01*
X713774Y4032976D01*
X601612Y4125025D01*
X473648Y4193423D01*
X334798Y4235543D01*
X226585Y4246201D01*
X226582Y4246201D01*
X190399Y4249765D01*
X154216Y4246201D01*
X-2554213Y4246201D01*
X-2590399Y4249765D01*
X-2626585Y4246201D01*
X-3126169Y4246201D01*
X-3167160Y4345162D01*
X-3270010Y4499087D01*
X-3400913Y4629990D01*
X-3554838Y4732840D01*
X-3725871Y4803684D01*
X-3907438Y4839800D01*
X-4092562Y4839800D01*
X-4274129Y4803684D01*
X-4445162Y4732840D01*
X-4541931Y4668181D01*
X-4623750Y4750000D01*
X-4493477Y4880273D01*
X-4392562Y4860200D01*
X-4207438Y4860200D01*
X-4025871Y4896316D01*
X-3854838Y4967160D01*
X-3700913Y5070010D01*
X-3570010Y5200913D01*
X-3467160Y5354838D01*
X-3396316Y5525871D01*
X-3360200Y5707438D01*
X-3360200Y5892562D01*
X-3396316Y6074129D01*
X-3467160Y6245162D01*
X-3563400Y6389194D01*
X-3563400Y6863814D01*
X-3559836Y6900000D01*
X-3574058Y7044399D01*
X-3587818Y7089758D01*
X-3616178Y7183249D01*
X-3651857Y7250000D01*
X-3616178Y7316751D01*
X-3574058Y7455601D01*
X-3563400Y7563814D01*
X-3563400Y7563815D01*
X-3559836Y7600000D01*
X-3563400Y7636186D01*
X-3563400Y8605458D01*
X-3414438Y8667160D01*
X-3260513Y8770010D01*
X-3193612Y8836911D01*
X-3072162Y8755760D01*
G37*
G04 #@! TD.AperFunction*
M02*
