G04 #@! TF.GenerationSoftware,KiCad,Pcbnew,(5.1.10-1-10_14)*
G04 #@! TF.CreationDate,2021-12-01T23:12:48+09:00*
G04 #@! TF.ProjectId,DBG-ESP32,4442472d-4553-4503-9332-2e6b69636164,V1.0*
G04 #@! TF.SameCoordinates,Original*
G04 #@! TF.FileFunction,Paste,Top*
G04 #@! TF.FilePolarity,Positive*
%FSLAX46Y46*%
G04 Gerber Fmt 4.6, Leading zero omitted, Abs format (unit mm)*
G04 Created by KiCad (PCBNEW (5.1.10-1-10_14)) date 2021-12-01 23:12:48*
%MOMM*%
%LPD*%
G01*
G04 APERTURE LIST*
%ADD10R,0.300000X1.750000*%
%ADD11R,2.100000X1.600000*%
%ADD12R,0.150000X1.400000*%
%ADD13R,1.400000X0.150000*%
%ADD14R,1.000000X1.600000*%
G04 APERTURE END LIST*
D10*
X1300000Y15225000D03*
X650000Y15225000D03*
X0Y15225000D03*
X-650000Y15225000D03*
X-1300000Y15225000D03*
D11*
X3100000Y15550000D03*
X-3100000Y15550000D03*
D12*
X3750000Y10800000D03*
X3250000Y10800000D03*
X2750000Y10800000D03*
X2250000Y10800000D03*
X1750000Y10800000D03*
X1250000Y10800000D03*
X750000Y10800000D03*
X250000Y10800000D03*
X-250000Y10800000D03*
X-750000Y10800000D03*
X-1250000Y10800000D03*
X-1750000Y10800000D03*
X-2250000Y10800000D03*
X-2750000Y10800000D03*
X-3250000Y10800000D03*
X-3750000Y10800000D03*
D13*
X-5800000Y8750000D03*
X-5800000Y8250000D03*
X-5800000Y7750000D03*
X-5800000Y7250000D03*
X-5800000Y6750000D03*
X-5800000Y6250000D03*
X-5800000Y5750000D03*
X-5800000Y5250000D03*
X-5800000Y4750000D03*
X-5800000Y4250000D03*
X-5800000Y3750000D03*
X-5800000Y3250000D03*
X-5800000Y2750000D03*
X-5800000Y2250000D03*
X-5800000Y1750000D03*
X-5800000Y1250000D03*
D12*
X-3750000Y-800000D03*
X-3250000Y-800000D03*
X-2750000Y-800000D03*
X-2250000Y-800000D03*
X-1750000Y-800000D03*
X-1250000Y-800000D03*
X-750000Y-800000D03*
X-250000Y-800000D03*
X250000Y-800000D03*
X750000Y-800000D03*
X1250000Y-800000D03*
X1750000Y-800000D03*
X2250000Y-800000D03*
X2750000Y-800000D03*
X3250000Y-800000D03*
X3750000Y-800000D03*
D13*
X5800000Y1250000D03*
X5800000Y1750000D03*
X5800000Y2250000D03*
X5800000Y2750000D03*
X5800000Y3250000D03*
X5800000Y3750000D03*
X5800000Y4250000D03*
X5800000Y4750000D03*
X5800000Y5250000D03*
X5800000Y5750000D03*
X5800000Y6250000D03*
X5800000Y6750000D03*
X5800000Y7250000D03*
X5800000Y7750000D03*
X5800000Y8250000D03*
X5800000Y8750000D03*
D14*
X-2200000Y-11000000D03*
X2200000Y-11000000D03*
X-2200000Y-6000000D03*
X2200000Y-6000000D03*
G36*
G01*
X10360000Y6810000D02*
X10360000Y7210000D01*
G75*
G02*
X10560000Y7410000I200000J0D01*
G01*
X11060000Y7410000D01*
G75*
G02*
X11260000Y7210000I0J-200000D01*
G01*
X11260000Y6810000D01*
G75*
G02*
X11060000Y6610000I-200000J0D01*
G01*
X10560000Y6610000D01*
G75*
G02*
X10360000Y6810000I0J200000D01*
G01*
G37*
G36*
G01*
X8660000Y6810000D02*
X8660000Y7210000D01*
G75*
G02*
X8860000Y7410000I200000J0D01*
G01*
X9360000Y7410000D01*
G75*
G02*
X9560000Y7210000I0J-200000D01*
G01*
X9560000Y6810000D01*
G75*
G02*
X9360000Y6610000I-200000J0D01*
G01*
X8860000Y6610000D01*
G75*
G02*
X8660000Y6810000I0J200000D01*
G01*
G37*
G36*
G01*
X10360000Y2820000D02*
X10360000Y3220000D01*
G75*
G02*
X10560000Y3420000I200000J0D01*
G01*
X11060000Y3420000D01*
G75*
G02*
X11260000Y3220000I0J-200000D01*
G01*
X11260000Y2820000D01*
G75*
G02*
X11060000Y2620000I-200000J0D01*
G01*
X10560000Y2620000D01*
G75*
G02*
X10360000Y2820000I0J200000D01*
G01*
G37*
G36*
G01*
X8660000Y2820000D02*
X8660000Y3220000D01*
G75*
G02*
X8860000Y3420000I200000J0D01*
G01*
X9360000Y3420000D01*
G75*
G02*
X9560000Y3220000I0J-200000D01*
G01*
X9560000Y2820000D01*
G75*
G02*
X9360000Y2620000I-200000J0D01*
G01*
X8860000Y2620000D01*
G75*
G02*
X8660000Y2820000I0J200000D01*
G01*
G37*
G36*
G01*
X8900000Y16300000D02*
X8900000Y16700000D01*
G75*
G02*
X9100000Y16900000I200000J0D01*
G01*
X9600000Y16900000D01*
G75*
G02*
X9800000Y16700000I0J-200000D01*
G01*
X9800000Y16300000D01*
G75*
G02*
X9600000Y16100000I-200000J0D01*
G01*
X9100000Y16100000D01*
G75*
G02*
X8900000Y16300000I0J200000D01*
G01*
G37*
G36*
G01*
X7200000Y16300000D02*
X7200000Y16700000D01*
G75*
G02*
X7400000Y16900000I200000J0D01*
G01*
X7900000Y16900000D01*
G75*
G02*
X8100000Y16700000I0J-200000D01*
G01*
X8100000Y16300000D01*
G75*
G02*
X7900000Y16100000I-200000J0D01*
G01*
X7400000Y16100000D01*
G75*
G02*
X7200000Y16300000I0J200000D01*
G01*
G37*
G36*
G01*
X-7950000Y15950000D02*
X-9050000Y15950000D01*
G75*
G02*
X-9300000Y16200000I0J250000D01*
G01*
X-9300000Y19200000D01*
G75*
G02*
X-9050000Y19450000I250000J0D01*
G01*
X-7950000Y19450000D01*
G75*
G02*
X-7700000Y19200000I0J-250000D01*
G01*
X-7700000Y16200000D01*
G75*
G02*
X-7950000Y15950000I-250000J0D01*
G01*
G37*
G36*
G01*
X-7950000Y10550000D02*
X-9050000Y10550000D01*
G75*
G02*
X-9300000Y10800000I0J250000D01*
G01*
X-9300000Y13800000D01*
G75*
G02*
X-9050000Y14050000I250000J0D01*
G01*
X-7950000Y14050000D01*
G75*
G02*
X-7700000Y13800000I0J-250000D01*
G01*
X-7700000Y10800000D01*
G75*
G02*
X-7950000Y10550000I-250000J0D01*
G01*
G37*
M02*
